<svg xmlns="http://www.w3.org/2000/svg" viewBox="0 0 2000 2000" width="2000" height="2000"><g transform="translate(531.0 1258.0) rotate(0.0 561.0 188.5) scale(0.9991709196736042 0.9988051429192133)"><svg width="1122.931" height="377.451" viewBox="0 0 1122.931 377.451"><path d="M596.516 6c-21.285 41.948-103.689 153.573-146.259 186.586-10.643-10.316-45.084-16.494-63.763-2.485-2.932-10.751-13.8-30.612-29.688-47.3-58.927-66.618-239.436-70.459-223.39 63.441-12.563-16.9-96.387-23.25-121.551 37.05C.341 270.9 4.236 319.575 37.68 346.124a88.936 88.936 0 0 0 54.514 19.4h80.97c83.275 0 871.887 9.114 898.8 4.742 26.063-4.235 42.8-24.558 44.742-43.873 2.542-25.29-16.073-56.471-49.955-65.486-30.307-8.064-52.778.951-60.6 15.72 11.968-90.9-138.024-164.917-207.855-15.72-17.918-36.6-62.878-33.664-80.47-10.207.977-44.191 18.592-120.642 38.466-175.375-8.471 17.919-42.593 61.394-57.036 76.009-11.039 11.169-5.213-44.742-13.9-33.448-25.235 32.806-66.213 60.163-79.461 64.724-2.87-9.923-6.688-67.765 8.95-102.95-7.753 2.8-21.353 7.559-33.448 14.335C567.476 82.109 596.516 6 596.516 6z" fill="#fff"/><path d="M980.443 377.463c-122.143 0-349.591-1.962-593.69-4.2-105.9-.972-189.542-1.739-213.589-1.739H92.071c-21.83-.448-41.386-7.412-58.122-20.7-20.78-16.5-28.832-38.776-31.927-54.561-3.757-19.154-2.146-39.82 4.306-55.281 11.89-28.494 38.56-47.268 73.169-51.509 17.7-2.169 35.246-.119 47 4.883-1.341-42.428 17.756-74.48 54.628-91.024 55.7-25 141.514-8.118 180.1 35.411 13.7 14.411 23.581 30.67 28.486 42.462 19.243-9.177 46.7-5.137 60.46 3.742 41.884-35.035 120.406-141.086 141-181.661a6 6 0 0 1 10.956 4.854c-.072.188-7.24 19.049-12.614 39.039-6.224 23.154-6.317 33.871-5.51 38.653a251.683 251.683 0 0 1 27.431-11.32l1.373-.5a6 6 0 0 1 7.523 8.08c-12.667 28.5-11.793 73.616-9.8 91.816 16.127-8.569 48.592-31.757 70.074-59.685 3.355-4.362 6.949-4.114 8.791-3.576 6.087 1.773 6.75 9.226 7.849 21.573.285 3.2.687 7.728 1.235 11.218 15.624-17 44.984-55.007 52.393-70.682a6 6 0 0 1 11.064 4.612c-18.552 51.1-33.59 115.935-37.279 158.865a55.648 55.648 0 0 1 35.624-8.792 52.45 52.45 0 0 1 37.459 21.084c16.674-31.791 38-54.4 63.489-67.292A103.669 103.669 0 0 1 938.353 174c42.071 12.295 71.634 48.016 74.263 86.94 12.2-8.4 31.318-12.309 55.673-5.829a75.17 75.17 0 0 1 41.988 28.967c9.3 13.111 13.818 28.754 12.393 42.917-2.088 20.769-19.847 44.336-49.75 49.195-5.531.895-38.861 1.273-92.477 1.273zM92.258 359.522h80.906c24.1 0 107.771.768 213.7 1.74 248.911 2.283 665.512 6.106 684.134 3.079 23.931-3.888 38.1-22.337 39.734-38.551 1.138-11.319-2.6-23.993-10.242-34.774a63.147 63.147 0 0 0-35.29-24.316c-28.466-7.574-47.508.936-53.751 12.729a6 6 0 0 1-11.251-3.59c5.15-39.125-22.885-77.957-65.214-90.328a91.9 91.9 0 0 0-68.35 6.431c-25.593 12.943-46.759 37-62.908 71.5a6 6 0 0 1-5.382 3.456h-.044a6 6 0 0 1-5.389-3.361c-9.365-19.127-25.171-23.343-33.759-24.154-14.385-1.357-28.714 4.5-36.523 14.908a6 6 0 0 1-10.8-3.733c.729-33.016 10.868-86.05 25.219-135.379-12.128 16.121-25.529 32.274-33.524 40.364-3.956 4-7.674 3.477-9.534 2.807-6.687-2.406-7.532-11.913-8.7-25.071-.138-1.552-.3-3.377-.486-5.171-26.085 30.813-63.613 55.573-76.954 60.166a6 6 0 0 1-7.716-4.007c-2.672-9.24-6.383-57.738 4.626-94.472a168.085 168.085 0 0 0-20.427 9.425 6 6 0 0 1-6.829-.671c-9.16-7.821-6.078-28.57-1.33-47.73C541.5 102.364 486.2 172.3 453.934 197.327a6 6 0 0 1-7.852-.433c-8.424-8.165-39.655-14.242-55.989-1.993a6 6 0 0 1-9.388-3.221c-2.793-10.246-13.642-29.408-28.244-44.741l-.15-.163c-16.6-18.762-44.517-33.2-76.607-39.625-32.429-6.488-65.111-3.89-89.67 7.129-45.174 20.268-50.308 60.808-46.66 91.248a6 6 0 0 1-10.773 4.293c-3.976-5.348-23.225-11.431-47.644-8.438C63.205 203.558 31.343 212.2 17.4 245.6c-9.7 23.255-8.785 69.79 24.008 95.823a82.763 82.763 0 0 0 50.85 18.099z"/><path d="M295.273 260.9c35.185-111.528 188.307-123.256 220.234-17.048" fill="#fff"/><path d="M295.275 266.907a6.005 6.005 0 0 1-5.724-7.807c20.671-65.523 78.178-94.726 126.312-94.726h.806c50.195.341 90.269 30.134 104.584 77.752a6 6 0 1 1-11.492 3.455c-6.591-21.924-19.215-39.878-36.507-51.921-16.034-11.166-35.628-17.143-56.668-17.286h-.729c-43.74 0-96.021 26.614-114.862 86.336a6 6 0 0 1-5.72 4.197z"/><path d="M465.336 293.929c25.53-77.759 134.894-50.724 138.556 12.988" fill="#fff"/><path d="M603.885 312.917a6 6 0 0 1-5.984-5.656c-1.343-23.372-21.806-49.528-58.317-54.3-25.259-3.3-56.526 6.222-68.548 42.839a6 6 0 1 1-11.4-3.744c6.246-19.024 17.861-33.722 33.587-42.505 14-7.82 30.574-10.754 47.916-8.488 32.534 4.251 66.595 28.117 68.743 65.509a6 6 0 0 1-5.646 6.334 5.183 5.183 0 0 1-.351.011z"/><path d="M684.723 277.626c32.775-80.683 131.815-74.167 138.114-7.068" fill="#fff"/><path d="M684.721 283.628a6 6 0 0 1-5.556-8.26c9.016-22.2 23.538-39.721 41.994-50.675 16.65-9.881 35.705-13.868 53.663-11.226 30.449 4.481 51.137 26.143 53.989 56.531a6 6 0 1 1-11.947 1.121c-2.31-24.6-19.089-42.145-43.79-45.78-28.479-4.192-65.123 11.049-82.792 54.545a6 6 0 0 1-5.561 3.744z"/></svg></g><g transform="translate(839.0 790.0) rotate(0.0 71.5 88.0) scale(1.0424336086427222 1.0404596940102626)"><svg width="137.179" height="169.156" viewBox="0 0 137.179 169.156"><path d="m95.738 28.492 8.683 2.581-31.373 105.535-8.682-2.581z"/><path d="M73.048 142.608a5.977 5.977 0 0 1-1.71-.249l-8.682-2.581a6 6 0 0 1-4.041-7.461L89.988 26.783a6 6 0 0 1 7.461-4.041l8.682 2.581a6 6 0 0 1 4.041 7.461L78.8 138.318a6 6 0 0 1-5.751 4.29z"/><circle cx="100.08" cy="29.783" fill="#ff002a" r="23.777"/><path d="M100.12 59.574a29.882 29.882 0 0 1-8.52-1.249 29.776 29.776 0 0 1 16.964-57.084 29.777 29.777 0 0 1 5.7 54.724 29.621 29.621 0 0 1-14.144 3.609zM100.089 12a17.791 17.791 0 1 0 5.056.739 17.81 17.81 0 0 0-5.056-.739z" fill="#ff002a"/><path d="m8.49 111.743 122.688 6.857-2.49 44.556L5.999 156.3z" fill="#fff"/><path d="M128.693 169.157c-.112 0-.225 0-.34-.01L5.665 162.29a6 6 0 0 1-5.655-6.326l2.49-44.556a5.985 5.985 0 0 1 6.325-5.656l122.69 6.857a6 6 0 0 1 5.655 6.325l-2.491 44.558a6 6 0 0 1-5.986 5.665zM12.325 150.643l110.708 6.189 1.821-32.577-110.708-6.187z"/></svg></g><g transform="translate(1047.0 411.0) rotate(0.0 315.0 472.5) scale(0.9997873468182957 0.9993654822335025)"><svg width="630.134" height="945.6" viewBox="0 0 630.134 945.6"><path d="M264.5 834.765 125.737 769.9a18.6 18.6 0 0 1-8.975-24.729l10.184-26.509 176.089 82.309-13.807 24.819a18.6 18.6 0 0 1-24.728 8.975z" fill="#fff"/><path d="M272.338 842.514a24.445 24.445 0 0 1-10.38-2.314L123.2 775.338a24.632 24.632 0 0 1-11.964-32.5l10.115-26.326a6 6 0 0 1 8.141-3.284l176.089 82.31a6 6 0 0 1 2.7 8.353l-13.712 24.643a24.639 24.639 0 0 1-22.231 13.98zm-142.1-115.688-7.876 20.5c-.049.132-.1.261-.165.389a12.616 12.616 0 0 0 6.08 16.752l138.763 64.862a12.615 12.615 0 0 0 16.752-6.08c.06-.127.124-.253.192-.376l10.678-19.19z"/><path d="M155.949 476.617c-5.153 10.765-41.538 110.085-60.165 176C45.652 649.51 34.724 729.44 6 800.19c.456-68.958-.014-198.159 19.868-261.8 10.845-34.712 33.681-84.941 97.524-85.937 29.942-.463 43.276 1.772 32.557 24.164z" fill="#fff"/><path d="M6 806.191a6.006 6.006 0 0 1-6-6.04c.026-3.957.05-8.113.073-12.443.4-71.161 1.059-190.263 20.069-251.1 4.921-15.751 13.4-38.879 30.119-57.8 18.561-21 43.136-31.884 73.038-32.35 19.1-.3 34.164.2 40.017 9.332 4.749 7.409 1.159 16.913-1.955 23.418-4.793 10.012-41.186 109.161-59.8 175.041a6 6 0 0 1-6.145 4.357c-15.255-.946-26.938 6.669-37.916 24.694-10.526 17.277-18.822 41.97-27.6 68.113-5.629 16.753-11.449 34.077-18.335 51.039A6 6 0 0 1 6 806.191zM129.552 458.4c-2.321 0-4.418.033-6.066.058-59.768.932-81.068 47.09-91.891 81.728C14.9 593.618 12.757 695.115 12.21 766.191c2.156-6.243 4.245-12.462 6.309-18.605 9-26.8 17.506-52.11 28.732-70.535 12.105-19.87 26.546-29.889 44.022-30.493 19.477-67.686 54.339-162.242 59.264-172.531 4.053-8.466 3.073-11.143 2.677-11.761-2.159-3.366-14.601-3.866-23.662-3.866z"/><path d="M469.584 622.018c-4.954 10.857-52.815 100.477-91.438 157.046 38.065 32.947-17.774 93.119-53.63 160.536 52.612-44.58 149.038-122.089 185.107-178.16C529.3 730.855 553.187 681.118 513 631.5c-18.845-23.272-33.112-32.068-43.416-9.482z" fill="#fff"/><path d="M324.516 945.6a6 6 0 0 1-5.3-8.817c8.736-16.425 18.537-32.25 28.014-47.553 14.428-23.294 28.055-45.3 34.209-63.876 6.321-19.083 4.093-31.96-7.221-41.753a6 6 0 0 1-1.029-7.92c37.956-55.591 85.979-145.294 90.934-156.154 4.641-10.171 10.459-15.567 17.788-16.5 10.013-1.274 20.7 6.114 35.752 24.694 18.821 23.24 26.233 49.074 22.026 76.785-3.788 24.963-16.094 46.3-25.022 60.178-32.383 50.34-113.036 118-166.406 162.773-7.1 5.958-13.78 11.56-19.868 16.719a5.992 5.992 0 0 1-3.877 1.424zm61.426-167.347c11.767 12.666 14.013 29.369 6.89 50.874-6.6 19.923-20.587 42.509-35.4 66.422-3.6 5.813-7.247 11.7-10.859 17.66 52.683-44.226 127.777-108.03 158-155.015 19.633-30.519 41.383-76.466 3.762-122.919-14.267-17.616-21.435-20.784-24.913-20.342-3.523.447-6.5 5.454-8.383 9.575-5.082 11.146-50.595 96.456-89.097 153.745z"/><path d="m312.2 806.4-196.721-92.635c-23.823-11.5-36.456-32.9-29.7-58.479 0 0 13.617-87.911 87.3-250.936 23.5-49.43 37.45-78.527 37.45-78.527a846.855 846.855 0 0 1 62.928-109.941L283.72 200.7C344.011 111.568 435.4 44.55 538.086 12.364l12.28-3.734c17.012-5.121 27-3.6 34.2 12.089l5.369 12.518c40.069 106.366 44.94 210.285 14.53 319.978-.566 2.038-3.09 11.789-3.737 13.765a1082.035 1082.035 0 0 1-51.287 127.6s-4.437 10.465-33.637 70.532c-74.455 153.16-134.749 225.455-134.749 225.455-15.909 20.883-45.219 27.249-68.855 15.833z" fill="#fff"/><path d="M336.967 818.076a62.9 62.9 0 0 1-27.353-6.257l-196.691-92.626c-27.395-13.225-40.009-38.154-33.023-65.137 1.087-6.769 15.975-93.46 87.711-252.177l.048-.105c23.238-48.874 37.319-78.253 37.458-78.544a855.688 855.688 0 0 1 63.369-110.71l10.269-15.181A478.943 478.943 0 0 1 391.441 80.351a490.167 490.167 0 0 1 144.85-73.712l12.33-3.749c15.69-4.724 31.553-6.133 41.4 15.326l.062.139 5.368 12.518c.035.082.069.165.1.249 40.482 107.463 45.29 213.344 14.7 323.7-.174.627-.536 2-.972 3.639-1.33 5.025-2.383 8.981-2.845 10.391a1082.479 1082.479 0 0 1-51.522 128.213c-.615 1.425-6.13 13.948-33.707 70.679C448.625 717.043 388.49 790.981 385.759 794.3a61.3 61.3 0 0 1-48.792 23.776zm-158.45-411.2C106.032 567.262 91.839 655.334 91.7 656.205a6.12 6.12 0 0 1-.128.613c-5.68 21.518 4.231 40.787 26.512 51.543l196.665 92.613.052.025A51.016 51.016 0 0 0 337 806.085a49.25 49.25 0 0 0 39.292-19.15 2.77 2.77 0 0 1 .163-.2c20.723-24.872 75.389-103.747 133.962-224.237 28.62-58.874 33.466-70.148 33.512-70.255.033-.078.069-.159.105-.235a1070.073 1070.073 0 0 0 51-126.891c.392-1.193 1.8-6.534 2.65-9.726.452-1.705.828-3.125 1.009-3.775 15.158-54.678 21.357-106.8 18.952-159.358-2.4-52.4-13.282-103.681-33.269-156.775l-5.283-12.32C573.72 11.5 567.905 9.616 552.1 14.376l-12.265 3.729A478.115 478.115 0 0 0 398.57 90a466.994 466.994 0 0 0-109.88 114.062l-10.269 15.181a843.7 843.7 0 0 0-62.482 109.163c-.145.301-14.209 29.646-37.422 78.468z"/><path d="M435.315 403.9a110.35 110.35 0 1 1 99.711-62.7l-5.412-2.591 5.412 2.591a110.5 110.5 0 0 1-99.711 62.7zm.327-208.7a98.343 98.343 0 1 0 42.31 9.633 98.474 98.474 0 0 0-42.31-9.625z"/><path d="M435.434 366.668a73.269 73.269 0 1 1 24.35-4.2 72.813 72.813 0 0 1-24.35 4.2zm.149-134.181a61.071 61.071 0 1 0 54.991 87.438 61.064 61.064 0 0 0-54.991-87.438zm183.274-38.779a5.978 5.978 0 0 1-2.542-.568L395.862 89.856a6 6 0 0 1 5.092-10.867l220.453 103.285a6 6 0 0 1-2.55 11.434z"/><circle cx="454.402" cy="81.841" r="9.774"/><circle cx="498.645" cy="102.457" r="9.774"/><circle cx="544.511" cy="123.746" r="9.774"/><circle cx="587.96" cy="144.226" r="9.774"/><path d="M337.379 583.158c-10.719 22.393-164.374 301.2-177.52 294.91S261.585 575.492 272.3 553.1s36.605-26.715 49.751-20.423 26.049 28.089 15.328 50.481z" fill="#fff"/><path d="M160.387 884.216a7.142 7.142 0 0 1-3.118-.736c-6.15-2.944-4.84-11.5-2.655-21.54 1.851-8.5 5.228-20.6 10.035-35.948 8.277-26.42 20.674-62.229 36.848-106.432 27.321-74.667 59.6-156.946 65.395-169.051a46.089 46.089 0 0 1 27.511-24.08c10.6-3.467 21.906-3.155 30.243.836 15.342 7.345 30.632 32.4 18.145 58.484-5.665 11.834-47.714 88.717-88.065 158.621-23.629 40.933-43.157 73.455-58.04 96.661-8.692 13.551-15.8 23.9-21.123 30.768-5.257 6.777-10.113 12.417-15.176 12.417zM309.178 536.06a35.953 35.953 0 0 0-11.043 1.774 33.8 33.8 0 0 0-20.419 17.856c-4.8 10.027-33.611 82.776-62.034 160.048-34.226 93.047-45.6 132.054-49.252 148.348 10.246-13.369 32.828-47.313 82.184-133.147 39.216-68.2 78.057-139.307 83.353-150.371l5.412 2.59-5.412-2.59c9.463-19.769-2.915-37.889-12.5-42.479a24.219 24.219 0 0 0-10.289-2.029zm206.155 25.434L178.246 403.929l18.98-38.606 337.087 155.566z"/></svg></g><g transform="translate(266.0 375.0) rotate(0.0 366.5 635.0) scale(0.9995731699833496 0.9999047334860222)"><svg width="733.313" height="1270.121" viewBox="0 0 733.313 1270.121"><g data-name="28.12"><g><path d="M331.1 278.133c-10.12 72.915 101.922 143.155 127.731 156.084 31.144 15.6 95.714 25.764 145.938 19.183 12.383 3.933 28.5 16.037 40.95 17.246 6.646.645 33.124 2.945 43.886.445 6.456-1.5 6.98-8.18 3.816-13.248-5.053-8.1-29.057-10.482-33.419-15.6-3.872-4.54.694-15.409 5.225-20.056 2.983-3.06 26.656.569 30.862 3.806 4.734 3.645 8.2 14.216 16.344 17.708 8.2 3.516 18.631-.494 13.532-10.429-1.391-2.709-7.426-17.225-12.9-22.744-8.837-8.906-36.119-16.428-41.366-18.285-9.974-3.528-35.028 7.809-54 16.955-29.153-6.815-94.472-37.543-124.743-43.559 0 0-47.059-71.383-74.372-87.4" style="fill:#fff"/><path d="M674.559 478.226c-11.568 0-24.373-1.118-29.419-1.608-8.521-.827-17.7-5.63-26.582-10.275a122.96 122.96 0 0 0-14.4-6.817c-47.943 5.949-114.015-2.913-148.017-19.944-11.178-5.6-47.122-26.676-78.769-56.549-39.244-37.043-56.813-72.614-52.217-105.725a6 6 0 0 1 11.887 1.65c-2.772 19.968 3.4 52.719 48.567 95.349 30.594 28.878 65.167 49.165 75.907 54.546 28.362 14.206 90.893 25.357 142.472 18.6a5.989 5.989 0 0 1 2.6.23c5.567 1.769 11.651 4.951 17.535 8.029 7.859 4.112 15.987 8.363 22.178 8.964 14.451 1.4 34.107 2.394 41.949.573.814-.19.915-.432.948-.512a4.763 4.763 0 0 0-.865-3.714c-1.685-2.7-11-5.557-16.561-7.262-7.44-2.281-13.316-4.083-16.335-7.624-6.814-7.99-.15-22.345 5.5-28.136 1.383-1.419 4.254-4.373 20.079-2.215 4.256.58 14.605 2.273 18.738 5.454 2.6 2 4.53 4.873 6.573 7.912 2.508 3.731 5.1 7.589 8.476 9.037 3.243 1.389 6.123.559 6.534.02a4.967 4.967 0 0 0-.7-2.195c-.276-.536-.72-1.493-1.293-2.74-2.033-4.414-6.793-14.752-10.528-18.519-6.447-6.5-27.274-13.079-35.115-15.557-1.8-.569-3.1-.979-3.994-1.3-5.641-2-22.261 3.624-49.392 16.7a6.01 6.01 0 0 1-3.971.438c-14.129-3.3-35.7-11.742-58.534-20.676-20.921-8.186-42.556-16.65-58.152-20.943a33.643 33.643 0 0 1-17.158-11.136c-11.752-14.3-51.763-61.937-73.19-74.5a6 6 0 0 1 6.071-10.352c22.506 13.2 60.92 58.41 76.39 77.235a21.7 21.7 0 0 0 11.059 7.19c16.2 4.46 38.132 13.04 59.341 21.338 21.315 8.339 41.509 16.24 54.867 19.668 26.27-12.573 45.954-20.057 56.66-16.272.706.25 2.051.676 3.607 1.168 15.571 4.921 32.5 10.974 40.017 18.548 4.6 4.635 8.921 13.289 12.909 21.951.478 1.036.841 1.834 1.07 2.279 4.356 8.488.606 13.928-1.208 15.873-4.474 4.793-12.71 5.948-20.027 2.81-6.631-2.843-10.553-8.68-13.706-13.371a28.206 28.206 0 0 0-3.87-5.047c-3.376-2.029-19.045-4.393-23.644-3.668-2.963 3.578-4.812 9.467-4.238 11.228 1.518 1.121 7 2.8 10.677 3.929 9.423 2.888 19.166 5.875 23.225 12.382 2.95 4.725 3.613 10.2 1.773 14.654a12.855 12.855 0 0 1-9.322 7.613c-4.112.954-10.072 1.289-16.402 1.289Z"/><path d="M604.772 459.4a6 6 0 0 1-5.761-7.685l12.922-44.2a6 6 0 0 1 11.518 3.368l-12.923 44.2a6 6 0 0 1-5.756 4.317Z"/><g><g><path d="M434.555 604.181h-.007a30.428 30.428 0 0 1-7.589 5.437c-15.377 7.764-45.344 15.762-102.621 13.036-54.509-2.6-88.557-16.163-105.784-25.4a21.988 21.988 0 0 1-11.216-15c-8.287 12.267-22.962 68.522-26.909 136.852-6.914 119.718-7.407 174.518-7.407 174.518-61.842 52.3-85.047 159.449-104.168 215.025l55 42s77.021-118.8 135.893-206.92c23.129-34.622 53.951-117.956 66.859-153.658L347.3 916.835s-1.715 25.613-1.715 63.535c0 61.2 16.711 162.252 16.711 162.252h69.645s11.3-106.67 16.293-182c2.287-34.488 2.113-33.678 2.947-65.719 1.178-45.356 3.634-140.803-16.626-290.722Z" style="fill:#ff002a"/><path d="M123.854 1156.649a6 6 0 0 1-3.641-1.231l-55-42a6 6 0 0 1-2.032-6.721c3.31-9.621 6.814-21.034 10.525-33.116 17.932-58.395 42.4-138.08 93.354-182.741.2-12.509 1.378-68.181 7.378-172.08a598.709 598.709 0 0 1 11.953-90.367c5.116-23.76 11.088-42.264 15.975-49.5a6 6 0 0 1 10.85 2.154 15.939 15.939 0 0 0 8.155 10.908c35.233 18.891 79.813 23.586 103.253 24.7 56.694 2.7 85.478-5.253 99.631-12.4a24.456 24.456 0 0 0 6.093-4.365 6 6 0 0 1 10.153 3.48c20.346 150.551 17.868 245.873 16.678 291.682l-.221 8.59c-.605 23.688-.667 26.164-2.736 57.37-4.945 74.585-16.2 181.167-16.314 182.235a6 6 0 0 1-5.967 5.368H362.3a6 6 0 0 1-5.92-5.021c-.168-1.015-16.791-102.244-16.791-163.231 0-34.259 1.414-58.853 1.683-63.237l-16.9-103.519c-24.56 66.091-44.6 110.935-59.634 133.448-58.175 87.077-135.077 205.663-135.847 206.851a6 6 0 0 1-5.035 2.736Zm-47.936-50.155 46.43 35.455c15.786-24.307 81.31-125.066 132.41-201.553 11.054-16.548 31.514-56.415 66.206-152.365a6 6 0 0 1 11.564 1.074l20.694 126.763a6.024 6.024 0 0 1 .064 1.368c-.017.254-1.7 25.88-1.7 63.134 0 52.279 12.5 135.132 15.827 156.252h59.123c2.344-22.586 11.42-111.633 15.712-176.4 2.054-30.962 2.116-33.415 2.715-56.882l.22-8.6c1.157-44.488 3.535-136-15.263-279.9l-.255.129C401.69 629.1 356.8 630.206 324.053 628.647c-54.113-2.581-88.781-15.621-108.334-26.105a27.915 27.915 0 0 1-8.135-6.524c-7.585 20.994-17.906 67.015-21.165 123.434-6.823 118.147-7.392 173.679-7.4 174.226a5.994 5.994 0 0 1-2.126 4.527c-49.686 42.021-73.98 121.133-91.718 178.9-3.228 10.518-6.304 20.534-9.257 29.389Z" style="fill:#ff002a"/></g><path d="M331.525 815.3a6 6 0 0 1-5.615-8.114l30.383-80.786a6 6 0 0 1 11.232 4.224l-30.383 80.779a6 6 0 0 1-5.617 3.897Zm-224.079 302.616a6 6 0 0 1-5.312-8.78c.546-1.046 55.063-105.24 89.893-160.769a141.216 141.216 0 0 0 20.4-55.577c6.318-44.66 7.348-91.739 8.257-133.277 1.249-57.006 2.326-106.239 16.335-133.315a6 6 0 0 1 10.659 5.514c-12.732 24.606-13.782 72.55-15 128.064-.916 41.872-1.956 89.329-8.375 134.7a153.131 153.131 0 0 1-22.118 60.271c-34.577 55.127-88.875 158.9-89.42 159.944a6 6 0 0 1-5.319 3.225ZM367.8 927.035a6.038 6.038 0 0 1-1.21-.123l-20.494-4.2a6 6 0 0 1-1.8-11.074l25.72-14.85a6 6 0 1 1 6 10.392l-12.034 6.948 5.018 1.028a6 6 0 0 1-1.2 11.879Zm74.844-249.618a5.975 5.975 0 0 1-3.5-1.129c-10.228-7.353-17.763-15.492-22.4-24.19-3.645-6.842-4.113-11.644-4.155-12.169l11.962-.946-.008-.095c.014.132 1.711 13.356 21.6 27.656a6 6 0 0 1-3.507 10.873Z"/><path d="M233.655 721.724a6 6 0 0 1-2.308-11.54c42.974-17.9 53.385-57.3 53.486-57.7a6 6 0 0 1 11.644 2.9c-.458 1.851-11.787 45.583-60.517 65.88a5.98 5.98 0 0 1-2.305.46Zm-54.677 197.883a6 6 0 0 1-5.748-4.287l-5.958-19.986a6 6 0 0 1 7.9-7.316l22.036 8.455a6 6 0 0 1-4.3 11.2l-10.654-4.088 2.475 8.3a6 6 0 0 1-5.752 7.715Z"/></g><g><g><path d="M362.294 1142.622s-6.152 52.913-3.218 82.517v22.1h162.545s1.083-15.067.311-23.2c-1.026-10.818-6.3-18.824-33.667-24.785-58.458-12.733-56.326-56.628-56.326-56.628Z" style="fill:#fff"/><path d="M521.621 1253.239H359.076a6 6 0 0 1-6-6v-21.807c-2.9-29.947 3-81.323 3.258-83.5a6 6 0 0 1 5.96-5.307h69.645a6 6 0 0 1 5.993 6.291c-.058 1.558-.864 39.045 51.61 50.474 26.094 5.684 36.849 14.118 38.363 30.082.81 8.532-.254 23.561-.3 24.2a6 6 0 0 1-5.984 5.567Zm-156.545-12h150.878a138.975 138.975 0 0 0 0-16.632c-.568-6-1.277-13.458-28.972-19.49-17.9-3.9-41.808-13.327-54.089-36.105a59.008 59.008 0 0 1-6.589-20.386H367.68c-1.437 14.053-4.938 52.715-2.638 75.925q.028.3.029.592Z"/></g><path d="M522.023 1231.139H359.076a6 6 0 0 1 0-12h162.947a6 6 0 0 1 0 12Z"/><path d="M406.2 1231.14a6 6 0 0 1-5.873-4.8c-2.522-12.383-10.219-22.048-22.875-28.726a66.535 66.535 0 0 0-19.372-6.6 6 6 0 0 1 1.63-11.889 77.576 77.576 0 0 1 22.971 7.685c15.981 8.314 26.149 21.157 29.4 37.14a6 6 0 0 1-5.885 7.2Zm81.783-.001a6 6 0 0 1-6-6v-25.889a6 6 0 0 1 12 0v25.889a6 6 0 0 1-6 6Zm-71.1-56.739a6 6 0 0 1-2.276-11.554l18.731-7.669a6 6 0 1 1 4.547 11.105l-18.731 7.669a5.972 5.972 0 0 1-2.271.449Zm15.133 20.234a6 6 0 0 1-4.3-10.188l12.66-12.988a6 6 0 1 1 8.594 8.376l-12.661 12.988a5.982 5.982 0 0 1-4.293 1.812Zm21.173 13.012a6 6 0 0 1-5.316-8.774l6.841-13.128a6 6 0 0 1 10.642 5.546l-6.84 13.128a6 6 0 0 1-5.327 3.228Z"/></g><g><g><path d="M68.854 1108.645s-30.229 30.446-47.278 56.316q-1.116 1.693-2.127 3.254L6 1188.213l85.183 75.908h78.3a113.366 113.366 0 0 0-.478-17.672c-1.364-12.226-1.348-26.891-30.17-40.1-42.985-19.7-14.985-55.7-14.985-55.7Z" style="fill:#fff"/><path d="M169.483 1270.121h-78.3a6.006 6.006 0 0 1-3.992-1.52l-85.183-75.908a6 6 0 0 1-.987-7.828l13.42-19.956q1.011-1.56 2.126-3.25c17.18-26.07 46.778-55.981 48.03-57.241a6 6 0 0 1 7.9-.541l55 42a6 6 0 0 1 1.095 8.452c-.094.121-10.327 13.641-7.052 26.855 1.973 7.959 8.634 14.589 19.8 19.707 30.4 13.93 32.148 30.706 33.427 42.954.067.652.134 1.3.206 1.935a119.858 119.858 0 0 1 .507 18.642 6 6 0 0 1-5.997 5.699Zm-76.014-12h70.16a107.508 107.508 0 0 0-.591-11.043c-.07-.63-.141-1.3-.212-1.983-1.192-11.423-2.318-22.213-26.491-33.291-14.694-6.735-23.6-16.1-26.471-27.824-3.182-13 2.128-25.293 5.934-31.931l-46.348-35.4c-8.5 8.876-29.807 31.8-42.864 51.613q-1.1 1.673-2.1 3.213l-.057.088-10.529 15.654Zm-74.02-89.906Z"/></g><path d="M168.65 1248.023h-66.929a6 6 0 0 1-4.007-1.534l-82.272-73.808a6 6 0 0 1 8.014-8.932l80.561 72.274h64.633a6 6 0 1 1 0 12Z"/><path d="M52.714 1204.064a6 6 0 0 1-5.3-8.8c17.3-32.848-7.438-52.106-8.5-52.91a6 6 0 0 1 7.18-9.615 53.38 53.38 0 0 1 14.428 18.177c5.221 10.711 9.026 28.069-2.491 49.94a6 6 0 0 1-5.317 3.208Zm66.886 43.959a6 6 0 0 1-4.844-9.533l24.21-33.234a6 6 0 0 1 9.7 7.066l-24.21 33.234a5.993 5.993 0 0 1-4.856 2.467Zm-2.924-77.189a6.055 6.055 0 0 1-.934-.073l-18.434-2.878a6 6 0 0 1 1.852-11.856l18.434 2.878a6 6 0 0 1-.918 11.929Zm-17.641 22.46a6 6 0 0 1-.716-11.956l17.439-2.119a6 6 0 0 1 1.447 11.912l-17.439 2.119a6.023 6.023 0 0 1-.731.044Zm12.149 21.633a6 6 0 0 1-2.8-11.308l16.849-8.884a6 6 0 1 1 5.6 10.614l-16.85 8.884a5.969 5.969 0 0 1-2.799.694Z"/></g><g><g><path d="M337.242 212.232c-23.844 12.423-73.195 37.792-89.085 104.074-10.533 47.112-13.381 101.158-29.057 143.582-12.221 33.061-15.683 67.318-10.113 95.218-1.861 13.5-3.6 19.17-1.645 27.148 3.967 16.224 45.034 35.083 100.738 41.118 76.717 8.312 121.283-2.7 126.479-19.187 2.174-6.9.35-10.315 1.065-21.931 23.211-35.412 22.307-139.7 25.827-183.883 4.536-56.933-20.563-94.226-38.418-135.446" style="fill:#fff"/><path d="M356.413 632.181a458.165 458.165 0 0 1-48.98-2.844c-56.4-6.11-100.944-25.312-105.919-45.658-1.825-7.445-.936-13.178.41-21.857.3-1.965.639-4.127.982-6.551-5.6-29.273-1.864-63.837 10.567-97.463 9.594-25.966 14.415-57.267 19.076-87.537 2.834-18.4 5.763-37.432 9.753-55.274 16.455-68.645 67.309-95.137 91.749-107.868l.418-.218a6 6 0 0 1 5.545 10.642l-.419.219c-22.866 11.911-70.444 36.7-85.6 99.933-3.881 17.359-6.779 36.186-9.584 54.393-4.751 30.858-9.665 62.767-19.68 89.87-11.644 31.5-15.237 65.018-9.857 91.963a6.02 6.02 0 0 1 .06 2c-.4 2.9-.794 5.448-1.149 7.735-1.244 8.019-1.868 12.044-.613 17.165 2.763 11.3 37.507 30.292 95.557 36.581 35.282 3.823 65.841 3.741 88.371-.238 21.142-3.732 30.258-10.086 31.74-14.787.971-3.083.889-5.17.741-8.959a105.117 105.117 0 0 1 .058-11.538 5.994 5.994 0 0 1 .969-2.92c17.475-26.659 20.782-98.828 22.97-146.584.619-13.511 1.153-25.179 1.9-34.487 3.549-44.544-11.376-75.963-27.178-109.227-3.609-7.6-7.34-15.451-10.765-23.357a6 6 0 1 1 11.012-4.77c3.342 7.715 7.027 15.474 10.593 22.978 15.783 33.226 32.1 67.583 28.3 115.33-.725 9.106-1.256 20.68-1.87 34.082-2.345 51.187-5.543 120.993-24.03 151.208-.165 3.662-.058 6.383.037 8.816.167 4.271.312 7.96-1.287 13.034-5.32 16.849-36.734 26.187-83.877 26.188Z"/></g><g><g><path d="M464.227 6s-5.415 25.348-38.6 34.771l-.082-.136S390.878 8.721 346 25.746c-31.8 12.063-65.855 40.679-56.212 89.126 11.071 55.622 54.371 65.972 54.371 65.972 18.013-.735 19.633-36.581 19.633-36.581s-14.187-8.727-13.98-26.275c.137-11.605 10.306-18.58 20.352-16.062 9.611 2.41 15.41 17.8 15.41 17.8 8.958-52.69 57.238-50.44 57.238-50.44a35.774 35.774 0 0 0 8.73-4.73 86.276 86.276 0 0 0 9.453-8.941S481.928 37.721 464.227 6Z" style="fill:#19abfd"/><path d="M344.156 186.844a6 6 0 0 1-1.394-.164c-1.921-.459-47.174-11.919-58.862-70.637-4.736-23.8-.131-45 13.689-63.029 10.681-13.932 27.118-25.608 46.28-32.878 41.195-15.626 73.931 6.585 83.173 13.921 26.663-8.919 31.273-29.1 31.318-29.31a6 6 0 0 1 11.107-1.671c15.709 28.153 4.233 49.3-4.275 56.834a92.584 92.584 0 0 1-9.871 9.3 6.124 6.124 0 0 1-.22.17 41.768 41.768 0 0 1-10.194 5.52 6.017 6.017 0 0 1-2.378.373c-1.74-.069-43.113-1.185-51.043 45.451a6 6 0 0 1-11.529 1.111c-1.548-4.059-6.343-12.861-11.256-14.093a10.348 10.348 0 0 0-8.9 1.766 10.639 10.639 0 0 0-3.995 8.548c-.164 13.781 10.695 20.821 11.157 21.114a6.068 6.068 0 0 1 2.817 5.361 92.067 92.067 0 0 1-3.3 19.433c-5.392 18.379-14.985 22.582-22.083 22.872-.078.007-.16.008-.241.008ZM372.95 26.711a69.552 69.552 0 0 0-24.825 4.645c-15.017 5.7-63.178 28.47-52.455 82.345 9.411 47.281 42.974 59.275 49.02 61.069 7.986-1.309 11.859-17.463 12.873-27.682-4.919-4.113-13.936-13.768-13.754-29.171a22.7 22.7 0 0 1 8.668-17.91 22.284 22.284 0 0 1 19.142-3.9c4.821 1.21 8.76 4.484 11.81 8.132 7.252-19.927 20.663-29.944 31.628-34.952A67.851 67.851 0 0 1 441.7 63.27a29.8 29.8 0 0 0 6.164-3.466 80.582 80.582 0 0 0 8.685-8.229 5.842 5.842 0 0 1 .542-.525c.553-.49 12.046-10.972 6.876-30.172-5.783 8.939-16.676 19.978-36.7 25.665a6 6 0 0 1-6.16-1.827c-2.99-2.604-21.8-18.005-48.157-18.005Z" style="fill:#19abfd"/></g><path d="m344.156 180.844 71.516 16.424s0 56.362 7.361 65.657c-30.9 9.275-76.254-35.792-83.791-51.693a101.82 101.82 0 0 0 4.914-30.388Z" style="fill:#fff"/><g><path d="M423.033 262.925c-12.38-30.82-5.4-60.277-5.4-60.277" style="fill:#fff"/><path d="M423.035 268.926a6 6 0 0 1-5.569-3.765c-12.942-32.216-5.976-62.617-5.673-63.9a6 6 0 0 1 11.678 2.767c-.063.267-6.345 28.089 5.129 56.656a6 6 0 0 1-5.565 8.238Z"/></g><g><path d="M382.169 197.045s34.086 16.467 64.3-5.386c22.1-15.984 22.274-39 22.274-39 5.785-1.281 12.472-6.106 10.246-11.678-2.6-6.5-12.623-10.033-18.372-27.12.376-9.841 2.431-34.35-17.8-44.576 0 0-48.279-2.251-57.237 50.439 0 0-5.8-15.386-15.41-17.8-10.048-2.522-20.217 4.454-20.352 16.062-.206 17.547 13.98 26.275 13.98 26.275s5.289 34.091-19.634 36.581c-.3 9.251-2.839 21.713-4.529 30.411" style="fill:#fff"/><path d="M339.638 217.256a6.008 6.008 0 0 1-5.9-7.146l.346-1.774c1.608-8.241 3.811-19.528 4.076-27.686a6 6 0 0 1 5.4-5.776c4.377-.437 7.651-2.13 10.007-5.175 4.743-6.129 5.012-16.534 4.562-22.149-4.755-3.82-14.5-13.621-14.319-29.632A22.7 22.7 0 0 1 352.483 100a22.281 22.281 0 0 1 19.143-3.9c4.82 1.209 8.758 4.483 11.807 8.131 7.252-19.927 20.664-29.944 31.628-34.951a66.49 66.49 0 0 1 28.032-6 5.983 5.983 0 0 1 2.426.639c22.757 11.5 21.632 37.6 21.152 48.738l-.013.3c3.154 8.766 7.454 13.115 11.265 16.968 2.687 2.719 5.226 5.287 6.637 8.818a11.914 11.914 0 0 1-.586 10.133c-2.06 3.9-5.912 6.608-9.626 8.216a59.175 59.175 0 0 1-24.364 39.419c-32.739 23.679-68.9 6.663-70.426 5.927a6 6 0 0 1 5.208-10.812c1.267.6 31.346 14.575 58.185-4.838 19.206-13.891 19.776-33.394 19.792-34.217a6.036 6.036 0 0 1 4.7-5.782c3.207-.71 5.649-2.71 5.966-3.6-.547-1.31-2.159-2.94-4.02-4.824-4.386-4.436-10.393-10.511-14.46-22.6a5.992 5.992 0 0 1-.31-2.142l.062-1.481c.433-10.05 1.23-28.538-13.406-36.883-7.274.095-42.53 2.787-49.785 45.462a6 6 0 0 1-11.529 1.11c-1.548-4.059-6.343-12.86-11.256-14.093a10.351 10.351 0 0 0-8.9 1.762 10.644 10.644 0 0 0-4 8.551c-.164 13.987 11.012 21.026 11.125 21.095a6 6 0 0 1 2.785 4.191c.132.853 3.13 21.046-6.664 33.7a24.574 24.574 0 0 1-13.213 8.837c-.749 8.2-2.58 17.578-3.982 24.754l-.344 1.764a6 6 0 0 1-5.874 4.864Z"/></g><ellipse cx="435.644" cy="118.986" rx="12.5" ry="9.091" transform="translate(277.955 542.162) rotate(-84.839)"/><path d="M461 61.613a6 6 0 0 1-3.933-10.534c.641-.568 12.078-11.056 6.9-30.23a55.682 55.682 0 0 1-7.932 9.656c-10.143 9.87-29.611 21.277-64.77 19.565a6 6 0 1 1 .584-11.985c57.6 2.806 66.186-31.9 66.523-33.378a6.012 6.012 0 0 1 11.1-1.631c15.9 28.49 3.958 49.807-4.576 57.1A5.98 5.98 0 0 1 461 61.613Z"/></g></g><g><g><path d="M296.242 294.26c-42.189 57.318 21.926 181.679 40.667 203.9 35.662 42.276 181.27 57.2 181.27 57.2l24.377-43.777-120.979-68.121s-18.556-88.406-30.189-110.236" style="fill:#fff"/><path d="M518.181 561.36a6.011 6.011 0 0 1-.614-.031c-6.044-.62-148.442-15.673-185.244-59.3-9.939-11.785-30.9-48.8-44.312-90.833-11.77-36.872-20.734-87.706 3.4-120.493a6 6 0 1 1 9.664 7.114c-11.664 15.847-21.416 47.748-1.632 109.73 13.387 41.936 34 77.19 42.054 86.745 30.548 36.214 150.159 51.922 173.385 54.658l19.527-35.069-115.776-65.191a6 6 0 0 1-2.928-4c-.184-.876-18.511-87.816-29.612-108.647a6 6 0 1 1 10.589-5.644c10.877 20.41 26.939 93.9 30.2 109.16L545.5 506.355a6 6 0 0 1 2.3 8.147l-24.377 43.777a6 6 0 0 1-5.242 3.081Z"/></g><g><path d="M542.556 511.581c20.014-1.688 29.738-8.688 44.866-4.78 10.533 2.721 35.772 10.378 35.772 10.378s.966 12.393-10.434 13.412c-9.245.826-14.227-3.438-20.758 9.028 4.9 8.467 10.075 13 18.845 18.556 14.94 9.459 21.528 18.891 15.407 22.125-13.962 7.375-35.135 6.947-51.7 4.8-11.574-1.5-45.846-16.088-56.373-29.74Z" style="fill:#fff"/><path d="M594.515 592.472a163.206 163.206 0 0 1-20.733-1.422c-11.816-1.531-48.373-16.49-60.352-32.026a6 6 0 0 1-.492-6.583l24.375-43.779a6 6 0 0 1 4.739-3.06 122.417 122.417 0 0 0 18.707-3.28c8.988-2.1 17.476-4.091 28.164-1.33 10.533 2.721 34.977 10.131 36.013 10.445a6 6 0 0 1 4.24 5.276c.574 7.359-3.183 18.719-15.882 19.854a48.046 48.046 0 0 1-6.812.035c-3.978-.192-5.424-.26-7.5 2.887 3.989 5.92 8.417 9.4 15.07 13.618 9.53 6.032 20.817 15.109 20.464 24.083a9.822 9.822 0 0 1-5.464 8.415c-9.847 5.204-22.452 6.867-34.537 6.867Zm-69.008-37.936c11.546 11.176 39.836 23.32 49.818 24.614 19.894 2.578 36.366 1.352 46.686-3.441-1.4-2.338-5.655-6.944-14.374-12.465-8.895-5.635-15.154-10.815-20.829-20.62a6 6 0 0 1-.121-5.79c6.246-11.923 12.64-12.589 20.37-12.219a37.122 37.122 0 0 0 5.168 0 5.041 5.041 0 0 0 4.471-3.128c-7.811-2.343-23.236-6.929-30.775-8.877-7.83-2.022-13.953-.588-22.428 1.4a144.985 144.985 0 0 1-17.221 3.233Z"/></g></g><g><path d="M208.983 555.1c30.365 46.76 192.753 55.009 226.637 27.148" style="fill:#fff"/><path d="M355.208 604.248a384.643 384.643 0 0 1-57.957-4.445c-27.563-4.26-76.335-15.308-93.3-41.433a6 6 0 0 1 10.065-6.535c10.532 16.219 41.539 29.381 85.068 36.109 55.774 8.621 115.315 3.987 132.725-10.328a6 6 0 1 1 7.622 9.269c-13.121 10.787-39.177 14.875-58.727 16.4-8.204.646-16.758.963-25.496.963Z"/></g><path d="M409.664 268.6c-34.227 0-66.525-36.729-75.411-54.684a6 6 0 1 1 10.756-5.322c10 20.214 45.207 55.018 74.058 46.69a6 6 0 0 1 3.328 11.53 45.727 45.727 0 0 1-12.731 1.786Z"/></g></g></svg></g></svg>