<svg xmlns="http://www.w3.org/2000/svg" viewBox="0 0 1600 1200" width="1600" height="1200"><g transform="translate(1302.0 106.0) rotate(36.68758083146241 83.5 118.5) scale(1.3195322376738305 1.321003963011889)"><svg width="126.56" height="179.409" viewBox="0 0 126.56 179.409"><path d="m83.194 4.313-34.74 71.18c-.45.94-1.36 1.57-2.4 1.67-.1.01-.2.02-.29.02-.94 0-1.82-.44-2.39-1.19l-39.91-52.44a3.01 3.01 0 0 1-.45-2.81c.34-.95 1.13-1.67 2.11-1.91L79.774.093c1.13-.29 2.32.11 3.06 1.02a3 3 0 0 1 .36 3.2z" fill="#DA5B4F"/><path d="M123.562 179.409a2.998 2.998 0 0 1-2.39-1.183L.613 19.816a3 3 0 0 1 4.774-3.634l120.56 158.41a3 3 0 0 1-2.385 4.817z" fill="#2A3E3D"/></svg></g><g transform="translate(1522.0 266.0) rotate(14.530274862035341 -128.5 124.0) translate(-0.4574785617527368 0.0) scale(-0.6878462650215453 0.6855942277389213)"><svg width="372.176" height="360.271" viewBox="0.665 0 372.176 360.271"><circle cx="180.86" cy="180.86" fill="#4C9D80" r="180.81"/><path d="M338.13 328.3c-15.34 0-35.23-5.16-59.14-15.45-41-17.61-89.23-48.38-135.92-86.63S56.72 146.71 31.39 110C4 70.33-3.44 40.72 9.94 24.39c11.2-13.67 33.81-15 67.2-3.87a7.5 7.5 0 0 1-4.73 14.23c-25.76-8.56-44.3-8.87-50.87-.86-8.2 10 .31 35.91 22.19 67.6 24.56 35.57 63.27 75.75 108.85 113.13s92.63 67.38 132.33 84.46c35.38 15.21 62.45 18.45 70.65 8.44 6.62-8.08 2.55-26.4-11.17-50.25a7.5 7.5 0 0 1 13-7.48c22.12 38.44 17.52 57.78 9.77 67.24-6.16 7.52-15.94 11.27-29.03 11.27z" fill="#2a3e3d"/><g fill="#fff"><path d="M299.88 274.05a7.5 7.5 0 0 1-6.36-11.46 132.6 132.6 0 0 0 17.93-46.82 7.5 7.5 0 0 1 14.77 2.64 147.34 147.34 0 0 1-20 52.09 7.49 7.49 0 0 1-6.34 3.55zm20.54-98.91a7.5 7.5 0 0 1-7.45-6.75C308.63 125.51 284.9 87 251 68a7.5 7.5 0 0 1 7.35-13.07c38.05 21.39 64.68 64.3 69.5 112a7.49 7.49 0 0 1-6.71 8.21 6.45 6.45 0 0 1-.72 0zM221.54 54.46a7.4 7.4 0 0 1-2.07-.3 136.18 136.18 0 0 0-16.76-3.66A7.5 7.5 0 0 1 205 35.67a150.48 150.48 0 0 1 18.62 4.08 7.5 7.5 0 0 1-2.06 14.71zm-38.49 276.01a7.5 7.5 0 0 1-1.3-14.89c3.43-.61 6.89-1.4 10.26-2.35a7.5 7.5 0 0 1 4.06 14.44c-3.84 1.08-7.78 2-11.7 2.68a7.37 7.37 0 0 1-1.32.12zM157 332h-.45a117.43 117.43 0 0 1-48.43-13.78 7.5 7.5 0 1 1 7.11-13.2 102.52 102.52 0 0 0 42.2 12 7.5 7.5 0 0 1-.43 15z"/></g></svg></g><g transform="translate(49.0 137.0) rotate(0.0 474.5 514.0) scale(0.538061165477905 0.5381635430844938)"><svg width="1763.74" height="1910.2" viewBox="0 0 1763.74 1910.2"><path d="M909.33 1476.22c-24.8-5.91-119.75-62.1-119.75-62.1l-83-87.68-43.37-128.22-12.21-57.51-5.66-156.5L915.91 839l159.33 13.2 309.38-107.6 181.81-47L1672 708l53.74 48.08 29.26 80.11-7.55 68.81-66 78.25-67.88 53.75-684.46 451.6-19.78-12.38" style="fill:#fff"/><path d="M295.89 1645.58c-1.73-6.59 55.49-15.74 82-61.73 8.43-14.62 18-40.41 9.37-48.22-16.36-14.7-72.93 56.92-165.71 79.48-98.31 23.89-193.63-17.92-192.64-31 .72-9.55 52.61-1.66 128.07-31.27 54.67-21.45 111.05-58.38 106.07-72.82-3.33-9.66-34.51-10.24-57.3-4.58-26.76 6.64-41.86 21.91-44.91 18.79-3.3-3.39 10.84-25.27 32.37-48.74 73.85-80.5 160.58-99.07 156.3-116.09-2.4-9.53-31.71-11.72-52.78-8.62-39.77 5.83-64.58 32.61-66.38 30.56-2.06-2.35 27.73-40.45 64.23-66 110.11-77.1 319.89-67.19 364.13 28.35 29.82 64.43-25.16 147.26-46.37 179.23-71.9 108.35-191.71 134.9-256.73 149.31-41.61 9.21-58.79 6.85-59.72 3.35ZM529.88 943.9c13.09 16.62 24.62 46.92 19.9 79-.8 5.48-4.81 29.48-26.95 55.78-40 47.49-101.74 58.2-143.65 64.9-99 15.82-131.4-11.46-195.09 20.21-23.19 11.55-42 27.25-46 23-4.13-4.46 10.82-27.24 27.58-43.69 18.3-17.94 32.39-22 31.44-24.52-2.22-5.8-87.12 3.92-157.17 57.44-19.77 15.1-35.34 31.39-39.11 28.34-5-4.06 13.48-40.54 35.29-66.69 70.86-84.95 193.5-80.86 192.05-102.26-.86-12.9-45.82-19.2-48.66-19.58-60.54-8.13-108.14 22-110.4 17.58-1.75-3.42 23.22-25.45 66.71-45.21 107.9-49 212.44-30.23 213.5-41.63.76-8-50.35-13-50.08-21.25.48-15.09 170.76-57.32 230.64 18.58Zm330.88 666.83c-4.48-20.67-20.51-48.85-48.25-65.63-4.74-2.86-25.77-15-60.19-14.7-62.05.61-109.66 41.44-141.47 69.49-75.24 66.31-74.79 108.65-139.79 137.63-23.65 10.55-47.78 15.08-47 20.86.81 6 27.94 9 51.27 6.52 25.49-2.69 37.63-10.92 38.92-8.65 3.07 5.41-58.46 64.71-144.32 84.68-24.23 5.64-46.71 7.28-46.75 12.12-.05 6.46 39.85 15.41 73.89 15.23 110.61-.61 185.55-97.75 201.11-83.06 9.41 8.9-14.35 47.58-15.87 50-32.3 51.89-85.8 69.41-83.82 74 1.53 3.52 34.43-1.71 77.32-22.68 106.44-52 158.53-144.59 168-138.14 6.62 4.47-22 47.08-15.48 52.15 11.97 9.09 152.93-95.34 132.43-189.82Z" style="fill:#f4d163"/><path d="M1688.63 976.86c-42-25.36-83.76-77.78-108.73-142.21-19.31-49.91-24.84-97.48-18.14-133.83 60.35-9.49 103.14-2.27 138.65 29.26 50.25 44.64 55.56 111 55.83 115 3.13 47.59-17.02 85.99-67.61 131.78Z" style="fill:#da5b4f"/><path d="M681.2 1276.46c-21.66-47.82-34.75-97.65-38-144.35-3.58-51.85 5.42-98.1 26-133.74 15.35-26.53 34.45-43.06 66-57.09 30.58-13.59 72.48-24.78 135.86-41.71 27.08-7.23 57.77-15.43 93-25.29 146.15-40.8 262.86-79.76 356.72-111.11 104.41-34.87 179.86-60.07 239.78-69.49 65.32-10.23 108.54-.95 144.56 31 52.81 46.87 58 116.95 58.23 119.93 1.66 25.25-3.06 48.25-14.47 70.33-11.2 21.74-28.89 43.13-55.5 67.27-53.26 48.18-138.36 103.39-267.17 187-73.65 47.79-165.3 107.26-271.38 178.9q-17 11.51-32.3 21.85c-126.38 85.69-168.95 114.53-233 103-40.66-7.31-81.85-30.32-119.12-66.49-34.46-33.47-64.71-77.06-87.42-126Zm1052.23-488.69c-8-17.56-19.9-36.39-37.82-52.31-32.43-28.82-72.15-37.05-132.71-27.54-58.75 9.23-133.72 34.24-237.46 68.91-94 31.38-210.91 70.44-357.41 111.35-35.34 9.87-66.07 18.07-93.19 25.31-123.75 33-165.45 44.18-193.15 92.11-37.8 65.32-32.22 168.27 14.37 268.79s121.69 171 196 184.41c58.3 10.45 99.67-17.54 222.42-100.75q15.3-10.38 32.32-21.88c106.18-71.7 197.91-131.22 271.59-179 128.25-83.25 213-138.22 265.37-185.63 49.31-44.61 68.22-81.09 65.28-125.94-.04-1.73-2.04-27.92-15.61-57.83Zm-842.6 678.07Z" style="fill:#2a3e3d"/><path d="M520.65 1083.6c-47.49-27.65-88.84-92-73.19-138.16 4.9-14.49 22.22-47.27 146.38-71.81 106.29-21 333.16-44.31 349.32 14.07 19.9 71.92-276.31 281.03-422.51 195.9Zm213.62 453.23c-8.9 54.21 14.39 127.05 60 144.38 14.29 5.44 50.61 13 148.53-67.2 83.84-68.6 246.24-228.79 211.52-278.36-42.86-61.17-392.66 34.22-420.05 201.18Zm-170.75-96.16c-43.35-27.68-62.88-76.43-62.88-76.43s-16.36-40.76-9.47-85.83c19.51-127.91 524.67-265.44 567.32-177.09 43.01 89.23-384.84 409.68-494.97 339.35Z" style="fill:#2a3e3d"/><ellipse cx="1425.25" cy="935.41" rx="133.68" ry="133.73" transform="translate(-258.97 671.31) rotate(-24.37)" style="fill:#2a3e3d"/><ellipse cx="1193.42" cy="1041.88" rx="73.13" ry="73.16" transform="translate(-323.57 585.27) rotate(-24.37)" style="fill:#2a3e3d"/><ellipse cx="1425.25" cy="935.41" rx="89.59" ry="89.62" transform="translate(-258.99 671.44) rotate(-24.37)" style="fill:#fff"/><ellipse cx="1193.42" cy="1041.88" rx="41.12" ry="41.14" transform="translate(-323.57 585.27) rotate(-24.37)" style="fill:#fff"/><path d="M828.41 1639.73a7.2 7.2 0 0 1 3.29-9.37c1.9-1 3.81-1.95 5.7-2.95a7.21 7.21 0 0 1 6.67 12.78l-5.82 3a7.2 7.2 0 0 1-9.68-3.13Zm33.11-18.03a7.19 7.19 0 0 1 2.88-9.15c24.41-14.48 52.85-32.07 78.85-52.76a7.2 7.2 0 0 1 9 11.24c-26.67 21.22-55.64 39.14-80.46 53.87a7.19 7.19 0 0 1-9.86-2.52c-.14-.22-.28-.45-.41-.68Zm106.03-74.51a7.19 7.19 0 0 1 1.92-8.47c5.86-4.93 11.72-10 17.37-15.12a757 757 0 0 0 57.42-57.43 7.2 7.2 0 0 1 10.68 9.64 773 773 0 0 1-58.52 58.52c-5.81 5.21-11.78 10.4-17.76 15.41a7.2 7.2 0 0 1-10.14-.87 7.41 7.41 0 0 1-1-1.67Zm96.45-97.47a7.2 7.2 0 0 1 1-7.55c7.82-9.47 15.55-19.27 23-29.16a7.2 7.2 0 0 1 11.51 8.64c-7.56 10.06-15.42 20-23.41 29.69a7.18 7.18 0 0 1-10.11 1 7.26 7.26 0 0 1-2-2.58Zm-437.67-52.66-.18-.42a7.2 7.2 0 0 1 4.2-9.27q7.68-2.91 15.32-5.88a7.21 7.21 0 0 1 5.18 13.45l-15.38 5.91a7.2 7.2 0 0 1-9.14-3.79Zm44.84-17.53-.11-.24a7.19 7.19 0 0 1 3.91-9.38c25.35-10.43 45.55-19.91 63.56-29.92a7.22 7.22 0 0 1 7 12.62c-18.5 10.29-39.2 20-65.08 30.65a7.21 7.21 0 0 1-9.28-3.73Zm115.37-59a7.18 7.18 0 0 1 2.91-9.16l.64-.37c9.82-5.79 20-11.77 29.65-18a903 903 0 0 0 99.84-74.88A7.19 7.19 0 1 1 929 1229a915.14 915.14 0 0 1-101.44 76c-9.93 6.45-20.23 12.5-30.2 18.36l-.64.38a7.19 7.19 0 0 1-9.84-2.56 5.52 5.52 0 0 1-.34-.65Zm160.79-120.37a7.24 7.24 0 0 1 1.66-8.26c9.83-9.1 19.58-18.55 29-28.07a7.19 7.19 0 0 1 10.19 10.09 965.729 965.729 0 0 1-29.45 28.51 7.18 7.18 0 0 1-10.16-.39 6.81 6.81 0 0 1-1.24-1.88ZM548.27 935.09l-.18-.38a7.22 7.22 0 0 1 4.13-9.31c2.07-.79 4.14-1.58 6.23-2.35a7.21 7.21 0 1 1 5 13.53q-3 1.13-6.05 2.29a7.19 7.19 0 0 1-9.13-3.78ZM587 921.9a5.74 5.74 0 0 1-.34-.9 7.2 7.2 0 0 1 4.83-9c16.5-4.93 34.57-9.56 55.26-14.15a7.2 7.2 0 0 1 3.22 14h-.1c-20.35 4.52-38.1 9.06-54.26 13.89a7.18 7.18 0 0 1-8.61-3.84Zm103.07-22.02a7.21 7.21 0 0 1 5.81-10.13c35-3.6 72.36-6.86 109.45-3.9a7.19 7.19 0 1 1-.94 14.35h-.2c-35.91-2.87-71 .2-106.83 3.88a7.22 7.22 0 0 1-7.29-4.2Zm151.37-.11a7.09 7.09 0 0 1-.58-3.85 7.19 7.19 0 0 1 8-6.27c4.22.51 8.49 1.08 12.69 1.69a7.2 7.2 0 0 1-2.05 14.25c-4.1-.6-8.27-1.15-12.4-1.67a7.17 7.17 0 0 1-5.66-4.15Z" style="fill:#fff"/><path d="M535.58 856c-2.29-2.35 20.63-40 20.63-40s58.08-45.88 143.64-18.22c0 0 85.37 27.09 103.47 53.27L698.47 743.4s-36.09 10.68-86.64-35.4-130.61-157.88-85-333.38 223.39-237 223.39-237 128.15-48.13 167.88-24.23-5.56-6-5.56-6 62-61.88 121.44-47.33 80.6 36.83 91.45 69.38-2.41 84.74-2.41 84.74l24.66 45.68-13.91 27-63 26.34-29.25 10.88 18.48 28.4 63.2-13.39 73.08-4.74S1152.77 171.88 1156.75 75l-20.48-10.55V30.27l13-22.75 39 27.13s124.51 192.53 149.7 278.53 26.1 168.84-149.41 201l-70.68.09 23.83 111.17s176 78.87 200.72 129.25l16.58-2.24s45.34-17.2 66.7-10.66l-75.22 56.88s-82.34 23.56-104.71 29.72-114.62-3.66-174.77-70l-38.28-49.15-.46 39.78s135.24 167.3 32 260.23-390-81.88-390-81.88Z" style="fill:#fff"/><path d="M1120.85 522.38a8.87 8.87 0 1 1 1.85-17.65 365.49 365.49 0 0 0 94.73-6.84c63.84-13.75 103.61-43.75 118.25-89.23 13.78-42.79-8.9-119.68-65.48-222.39a1523.82 1523.82 0 0 0-92.4-145.79A8.89 8.89 0 0 1 1192.13 30a1543.11 1543.11 0 0 1 93.54 147.49c59.86 108.66 82.41 188.26 67 236.59-16.46 51.37-62 86.4-131.83 101.25a376.5 376.5 0 0 1-99.63 7.13Z" style="fill:#2a3e3d"/><path d="M1126.15 170.39a8.87 8.87 0 0 1-7.79-9.28c2-36.83-14.37-63.45-48.71-79.14l-1.61-.83c-25.34-12-52.78-15.58-77.52-10.24-26.77 5.86-50.17 22.63-62.43 44.88a8.89 8.89 0 0 1-15.84-8.06 5.54 5.54 0 0 1 .3-.53c14.79-26.72 42.55-46.82 74.27-53.72 28.4-6.18 60-2.09 88.83 11.56l1.36.7a106.78 106.78 0 0 1 35.63 24.94c17.1 18.74 25 42.72 23.44 71.31a8.88 8.88 0 0 1-9.32 8.4 2.07 2.07 0 0 1-.61.01Z" style="fill:#4c9d80"/><path d="M711.66 744a9 9 0 0 0-8.68-9.32c-55.11-2-102-51.42-117.25-69.29-20.21-25.48-36.1-57.72-47.32-96.32A344.74 344.74 0 0 1 679 182.46a418.47 418.47 0 0 1 54-30c49.28-23.27 143.93-56.1 224.88-15.15A8.9 8.9 0 1 0 967 122l-.38-.22-.71-.36c-87.68-44.33-188.24-9.76-240.47 15a439.5 439.5 0 0 0-56.17 31.26 362.5 362.5 0 0 0-147.83 406.3q15.83 54.45 43.32 93.07a161.9 161.9 0 0 0 16.17 20.18 204.56 204.56 0 0 0 21.38 20.56 218.84 218.84 0 0 0 42.08 28.84c17.45 9 37 15.43 58 16.17a9 9 0 0 0 9.27-8.8Z" style="fill:#4c9d80"/><path d="M953.23 1041.32c-33.89-4.18-73.35-14.82-118.85-32-77.11-29.14-157.75-72.12-216.58-103.4-34.19-18.23-62-33.07-79.41-40.16l-23 43.56a8.88 8.88 0 0 1-15.73-8.26l26.6-50.58a8.89 8.89 0 0 1 10.64-4.31c17.54 5.77 49.15 22.63 89.23 43.91 90.05 48 226.9 120.89 329.17 133.54 30.48 3.78 57.7 2.1 80-7 25.2-10.42 41.87-29.83 50.82-59.33 19-62-.9-128.17-59.4-196.94A515.31 515.31 0 0 0 930.8 674a8.88 8.88 0 0 1 9.68-14.88 523.62 523.62 0 0 1 99.44 89.33c27.26 32 46.92 64.33 58.49 96.18 14.64 40.37 16.21 80 4.64 117.74-10.55 34.38-31.09 58.1-61.1 70.48-23.72 10.09-53.06 12.9-88.72 8.47ZM1205 833.1a234.38 234.38 0 0 1-69-19.5c-37.91-17.38-72.34-45.36-102.29-83.08-29.64-37.42-51.62-90.23-65.29-156.9a601.42 601.42 0 0 1-11.76-89 8.89 8.89 0 0 1 17.76-.67c.05 1.51 6.5 151.32 73.3 235.54 51.62 65.09 114.81 98 188.08 97.78 55.54-.15 99.9-20.06 111.06-27a8.88 8.88 0 0 1 9.44 15c-13.17 8.22-60.44 29.56-120.42 29.72a245 245 0 0 1-30.88-1.89Z" style="fill:#2a3e3d"/><path d="M1343.68 769.61a9.05 9.05 0 0 1-5.72-3.11c-77.21-92.46-196.55-129.42-197.77-129.78a8.87 8.87 0 0 1-6.2-7.13c-27.18-174.45-68.18-281.31-122-317.59-20.9-14.13-43.31-17.76-70.52-11.44-72.36 16.8-84.41 93.19-97 174a8.88 8.88 0 1 1-17.55-2.76c6.52-41.48 13.27-84.38 28.78-118.6 17.3-38.31 44.09-61.2 81.8-69.95 31.91-7.4 59.53-2.81 84.47 14 58.24 39.31 100.34 145.4 128.73 324.2a489.29 489.29 0 0 1 67.22 29.28c36.22 18.93 87.27 51.16 128.73 98.57 14.62-8.28 49.91-25.29 78.43-15.37a8.88 8.88 0 0 1-5.82 16.78c-27.86-9.72-69.12 17.12-69.57 17.49a9.1 9.1 0 0 1-6.01 1.41ZM1067 320.69a8.89 8.89 0 0 1 .06-17.65c16.58-1.92 61.38-11.93 69.41-34.65 5.71-16.18-9.43-36.24-23.14-50.21a8.89 8.89 0 0 1 12.42-12.7l.26.28c25.09 25.56 34.23 48.66 27.2 68.57-5.82 16.38-22.06 29.18-48.26 38a191.86 191.86 0 0 1-35.81 8.29 9.59 9.59 0 0 1-2.14.07Z" style="fill:#2a3e3d"/><path d="M1070.36 353.14a8.88 8.88 0 0 1-.64-17.52c4.74-.94 116.74-22.67 176.67 2.74a8.87 8.87 0 1 1-6.58 16.47l-.32-.16c-54.91-23.27-165.2-2-166.31-1.66a8.61 8.61 0 0 1-2.82.13Z" style="fill:#2a3e3d"/><path d="M1195.25 343.76a8.8 8.8 0 0 1-7.11-5.36c-27.29-65.11-39.37-255.83-39.85-264a8.87 8.87 0 0 1 17.61-2.22 7.65 7.65 0 0 1 .06 1.17c.13 2 12.43 195.8 38.55 258.14a8.89 8.89 0 0 1-4.77 11.61 8.43 8.43 0 0 1-4.49.66Z" style="fill:#2a3e3d"/><path d="M1156 82.77a9.36 9.36 0 0 1-3.33-1.11l-.25-.12c-5.43-1.06-18.17-3.52-24.1-16.17-6.31-13.5-2.06-33.36 13.05-60.77a8.87 8.87 0 1 1 15.63 8.55c-16.29 29.63-14.15 41.14-12.47 44.72 1.94 4.12 6.45 5.35 11.4 6.25a31.32 31.32 0 0 1 3.16.71A9.4 9.4 0 0 1 1166 75a8.88 8.88 0 0 1-9.84 7.81Zm-7.72-9.87a1.52 1.52 0 0 0 0 .6v-.61ZM553.24 829.52a8.88 8.88 0 0 1-4.42-15.77c45.81-36.23 105.94-42.24 174.14-17.54 7.91 2.85 15.5 5.95 22.65 9.2-60-65.36-85.2-127-74.75-184 8-43.82 37.95-84.69 86.49-118.22a340.15 340.15 0 0 1 70.81-37.54 8.88 8.88 0 0 1 6 16.72c-1.55.57-128.49 47.24-145.9 142.27-12 65.4 29.63 139.27 123.75 219.6a8.87 8.87 0 0 1-11.16 13.8 344.59 344.59 0 0 0-84.35-45.32c-62.8-22.62-115.5-17.58-156.67 14.95a8.79 8.79 0 0 1-6.59 1.85ZM1033 763.39a8.89 8.89 0 0 1-7.8-8.07c-.05-.62-1.12-15.3-1.16-38.65a8.88 8.88 0 0 1 17.75 0c0 22.65 1.12 37.18 1.06 37.3a8.89 8.89 0 0 1-8.19 9.52 10.26 10.26 0 0 1-1.66-.1Z" style="fill:#2a3e3d"/><path d="M1008.3 260.54a75.68 75.68 0 0 1-16-3.88 8.88 8.88 0 0 1 5.51-16.89l.47.16c9.73 3.47 19 4.25 26.63 2.22a27 27 0 0 0 18.23-15.38c3.22-7.79 1.84-18-3.21-23.75a8.87 8.87 0 0 1 11-13.59c8.8 4.88 17.27 9.12 24.12 7.56 6.31-1.43 11.3-9.28 10.68-16.8a8.88 8.88 0 0 1 17.7-1.44c1.34 16.54-9.42 32.16-24.4 35.59a35.09 35.09 0 0 1-16.55-.41 42 42 0 0 1-2.9 19.79 44.82 44.82 0 0 1-30.13 25.77 56 56 0 0 1-21.15 1.05Z" style="fill:#4c9d80"/></svg></g><g transform="translate(1134.0 277.0) rotate(0.0 24.0 25.0) scale(0.4015728269053794 0.40665945523899377)"><svg width="119.53" height="122.953" viewBox="0 0 119.53 122.953"><g fill="#f5d264"><path d="M34.381 50.793a115.678 115.678 0 0 1-8.12-34.913l27 16.017a5.146 5.146 0 0 0 2.423.925 5.171 5.171 0 0 0 2.98-1.292L91.941 7.575a118.037 118.037 0 0 1-8.655 34.841 5.191 5.191 0 0 0-.6 3.218 5.075 5.075 0 0 0 1.792 2.351l27.575 24.226a198.053 198.053 0 0 1-41.632 4.037L63.4 115.592 44.483 80.82 7.613 91.661l26.709-39.112c.4-.588.8-1.385.381-1.958s-1.549.409-.884.664"/><path d="M63.393 123.092a7.5 7.5 0 0 1-6.586-3.917L40.788 89.724l-31.06 9.132a7.5 7.5 0 0 1-8.309-11.425l24.7-36.168a8.116 8.116 0 0 1 .029-.962 122.7 122.7 0 0 1-7.365-33.874 7.5 7.5 0 0 1 11.307-7l25.457 15.1L87.559 1.488A7.5 7.5 0 0 1 99.41 8.253a125.116 125.116 0 0 1-8.52 35.385L117 66.576a7.5 7.5 0 0 1-3.441 12.981 205.825 205.825 0 0 1-36.853 4.15l-5.926 33.2a7.5 7.5 0 0 1-7.386 6.183zM44.483 73.32a7.5 7.5 0 0 1 6.589 3.917l8.7 15.989 3.266-18.3a7.5 7.5 0 0 1 7.452-6.182 190.666 190.666 0 0 0 24.688-1.38L79.524 53.619a12.151 12.151 0 0 1-4.1-6.108 12.259 12.259 0 0 1 .947-7.991 110.249 110.249 0 0 0 5.091-15.158L63.044 37.617a12.207 12.207 0 0 1-7.531 2.7 12.133 12.133 0 0 1-6.081-1.974l-13.539-8.028a107.738 107.738 0 0 0 4.59 15.5c.085.1.168.21.249.319 1.774 2.4 2.649 6.454-.216 10.65l-14.86 21.754 16.712-4.913a7.5 7.5 0 0 1 2.115-.305z"/></g></svg></g><g transform="translate(1047.0 790.0) rotate(-16.624831427545825 21.0 22.0) scale(0.37178011861556165 0.3820339836593646)"><svg width="112.97" height="115.173" viewBox="0 0 112.97 115.173"><g fill="#f5d264"><path d="M40.923 36.465 60.672 7.447q6.743 14.987 12.454 30.41a103.906 103.906 0 0 1 32.343 2.889 61.115 61.115 0 0 1-23.914 22.259c-1.676.867-3.509 1.767-4.364 3.45a8.517 8.517 0 0 0-.491 4.479l2.584 36.679a100.5 100.5 0 0 1-28.567-29.477l-37.46 14.59 17.408-30.918L7.621 45.834c10.265-3.182 23.038-6.187 33.3-9.369"/><path d="M79.284 115.113a7.5 7.5 0 0 1-4.2-1.287A108.635 108.635 0 0 1 47.852 87.3L15.979 99.715a7.5 7.5 0 0 1-9.257-10.668l14.057-24.966L3.349 52A7.5 7.5 0 0 1 5.4 38.67c5.269-1.634 11.2-3.225 16.926-4.764 4.688-1.259 9.509-2.554 13.887-3.851L54.472 3.227a7.5 7.5 0 0 1 13.04 1.143 491.1 491.1 0 0 1 10.719 25.763 110.967 110.967 0 0 1 29.066 3.34 7.5 7.5 0 0 1 4.57 11.187A68.251 68.251 0 0 1 85 69.667l-.189.1c-.194.1-.426.221-.652.341l.021.3 2.584 36.679a7.5 7.5 0 0 1-7.481 8.027zM50.715 70.635a7.5 7.5 0 0 1 6.344 3.5 93 93 0 0 0 13.525 16.711l-1.366-19.385a15.4 15.4 0 0 1 1.286-8.4c1.92-3.779 5.235-5.49 7.428-6.623l.178-.091a53.258 53.258 0 0 0 14.012-10.489 96.071 96.071 0 0 0-18.486-.519 7.5 7.5 0 0 1-7.543-4.878 477.122 477.122 0 0 0-6.889-17.526l-12.08 17.75a7.5 7.5 0 0 1-3.98 2.943c-5.269 1.634-11.195 3.225-16.926 4.764l-1.255.337 9.975 6.916a7.5 7.5 0 0 1 2.262 9.843l-7.113 12.635L48 71.147a7.492 7.492 0 0 1 2.715-.512z"/></g></svg></g><g transform="translate(1433.0 1024.0) rotate(-16.624831427545825 39.5 41.0) scale(0.6609219442817703 0.6669215065919497)"><svg width="119.53" height="122.953" viewBox="0 0 119.53 122.953"><g fill="#f5d264"><path d="M34.381 50.793a115.678 115.678 0 0 1-8.12-34.913l27 16.017a5.146 5.146 0 0 0 2.423.925 5.171 5.171 0 0 0 2.98-1.292L91.941 7.575a118.037 118.037 0 0 1-8.655 34.841 5.191 5.191 0 0 0-.6 3.218 5.075 5.075 0 0 0 1.792 2.351l27.575 24.226a198.053 198.053 0 0 1-41.632 4.037L63.4 115.592 44.483 80.82 7.613 91.661l26.709-39.112c.4-.588.8-1.385.381-1.958s-1.549.409-.884.664"/><path d="M63.393 123.092a7.5 7.5 0 0 1-6.586-3.917L40.788 89.724l-31.06 9.132a7.5 7.5 0 0 1-8.309-11.425l24.7-36.168a8.116 8.116 0 0 1 .029-.962 122.7 122.7 0 0 1-7.365-33.874 7.5 7.5 0 0 1 11.307-7l25.457 15.1L87.559 1.488A7.5 7.5 0 0 1 99.41 8.253a125.116 125.116 0 0 1-8.52 35.385L117 66.576a7.5 7.5 0 0 1-3.441 12.981 205.825 205.825 0 0 1-36.853 4.15l-5.926 33.2a7.5 7.5 0 0 1-7.386 6.183zM44.483 73.32a7.5 7.5 0 0 1 6.589 3.917l8.7 15.989 3.266-18.3a7.5 7.5 0 0 1 7.452-6.182 190.666 190.666 0 0 0 24.688-1.38L79.524 53.619a12.151 12.151 0 0 1-4.1-6.108 12.259 12.259 0 0 1 .947-7.991 110.249 110.249 0 0 0 5.091-15.158L63.044 37.617a12.207 12.207 0 0 1-7.531 2.7 12.133 12.133 0 0 1-6.081-1.974l-13.539-8.028a107.738 107.738 0 0 0 4.59 15.5c.085.1.168.21.249.319 1.774 2.4 2.649 6.454-.216 10.65l-14.86 21.754 16.712-4.913a7.5 7.5 0 0 1 2.115-.305z"/></g></svg></g><g transform="translate(159.0 242.0) rotate(0.0 42.5 43.0) scale(0.7524121448172081 0.7467027862433036)"><svg width="112.97" height="115.173" viewBox="0 0 112.97 115.173"><g fill="#f5d264"><path d="M40.923 36.465 60.672 7.447q6.743 14.987 12.454 30.41a103.906 103.906 0 0 1 32.343 2.889 61.115 61.115 0 0 1-23.914 22.259c-1.676.867-3.509 1.767-4.364 3.45a8.517 8.517 0 0 0-.491 4.479l2.584 36.679a100.5 100.5 0 0 1-28.567-29.477l-37.46 14.59 17.408-30.918L7.621 45.834c10.265-3.182 23.038-6.187 33.3-9.369"/><path d="M79.284 115.113a7.5 7.5 0 0 1-4.2-1.287A108.635 108.635 0 0 1 47.852 87.3L15.979 99.715a7.5 7.5 0 0 1-9.257-10.668l14.057-24.966L3.349 52A7.5 7.5 0 0 1 5.4 38.67c5.269-1.634 11.2-3.225 16.926-4.764 4.688-1.259 9.509-2.554 13.887-3.851L54.472 3.227a7.5 7.5 0 0 1 13.04 1.143 491.1 491.1 0 0 1 10.719 25.763 110.967 110.967 0 0 1 29.066 3.34 7.5 7.5 0 0 1 4.57 11.187A68.251 68.251 0 0 1 85 69.667l-.189.1c-.194.1-.426.221-.652.341l.021.3 2.584 36.679a7.5 7.5 0 0 1-7.481 8.027zM50.715 70.635a7.5 7.5 0 0 1 6.344 3.5 93 93 0 0 0 13.525 16.711l-1.366-19.385a15.4 15.4 0 0 1 1.286-8.4c1.92-3.779 5.235-5.49 7.428-6.623l.178-.091a53.258 53.258 0 0 0 14.012-10.489 96.071 96.071 0 0 0-18.486-.519 7.5 7.5 0 0 1-7.543-4.878 477.122 477.122 0 0 0-6.889-17.526l-12.08 17.75a7.5 7.5 0 0 1-3.98 2.943c-5.269 1.634-11.195 3.225-16.926 4.764l-1.255.337 9.975 6.916a7.5 7.5 0 0 1 2.262 9.843l-7.113 12.635L48 71.147a7.492 7.492 0 0 1 2.715-.512z"/></g></svg></g><g transform="translate(954.0 905.0) rotate(0.0 81.5 81.5) scale(0.6099386319413261 0.6099386319413261)"><svg width="267.24" height="267.24" viewBox="0 0 267.24 267.24"><circle cx="133.62" cy="133.62" fill="#F5D264" r="133.62"/><g fill="#2a3e3d"><path d="M205.63 107.11c-9.46 0-20.23-3.6-30.1-10.75-19.24-14-26.7-35.38-17-48.79 4.94-6.82 13.68-10.36 24-9.7 9.17.59 19 4.38 27.68 10.67 19.24 14 26.7 35.38 17 48.79-4.77 6.53-12.58 9.78-21.58 9.78zm-25.57-54.32c-4.33 0-7.69 1.28-9.37 3.59-4 5.55.95 18.64 13.64 27.84S211 94.08 215 88.53s-1-18.65-13.65-27.85c-6.31-4.58-13.54-7.43-19.83-7.84a23.2 23.2 0 0 0-1.46-.05zM41.38 168.08c-14 0-24.94-15.47-24.94-35.23s11-35.23 24.94-35.23 24.95 15.48 24.95 35.23-10.96 35.23-24.95 35.23zm0-55.46c-4.05 0-9.94 7.88-9.94 20.23s5.89 20.23 9.94 20.23 9.95-7.88 9.95-20.23-5.89-20.23-9.95-20.23zm129.54 119.06a44.81 44.81 0 1 1 44.81-44.81 44.86 44.86 0 0 1-44.81 44.81zm0-74.61a29.81 29.81 0 1 0 29.81 29.8 29.84 29.84 0 0 0-29.81-29.8z"/></g></svg></g></svg>