<svg xmlns="http://www.w3.org/2000/svg" viewBox="0 0 2500 3000" width="2500" height="3000"><g transform="translate(1230.0 1222.5) rotate(0.0 397.5 796.25) scale(2.5 2.4960815047021945)"><svg width="318" height="638" viewBox="0 0 318 638"><linearGradient id="a" gradientUnits="userSpaceOnUse" x1="46.955" x2="401.567" y1="678.845" y2="133.627"><stop offset=".002" stop-color="#fff"/><stop offset=".89" stop-color="#9fdeed"/></linearGradient><path d="M0 638h318s-98.907-198.005-98-276c2-172 58-346 58-346L244 0s-82.274 275.059-114 372C94 482 0 638 0 638z" fill="url(#a)"/></svg></g><g transform="translate(162.5 147.5) rotate(0.0 876.25 1366.25) scale(2.497353019552742 2.4987814725298643)"><svg width="701.743" height="1093.533" viewBox="0 0 701.743 1093.533"><linearGradient id="b"><stop offset=".198" stop-color="#fc5d78"/><stop offset=".638" stop-color="#f5837f"/></linearGradient><linearGradient xmlns:xlink="http://www.w3.org/1999/xlink" id="f" gradientUnits="userSpaceOnUse" x1="316.368" x2="332.963" xlink:href="#b" y1="256.404" y2="301.137"/><linearGradient id="g" gradientTransform="matrix(-1 0 0 1 -8775.333 0)" gradientUnits="userSpaceOnUse" x1="-9086.836" x2="-9101.477" y1="200.813" y2="236.305"><stop offset="0" stop-color="#fc5d78"/><stop offset=".94" stop-color="#f5837f"/></linearGradient><linearGradient id="h" gradientUnits="userSpaceOnUse" x1="273.777" x2="346.481" y1="654.213" y2="663.469"><stop offset=".407" stop-color="#153b64"/><stop offset=".684" stop-color="#2d5caa"/></linearGradient><linearGradient id="c"><stop offset="0" stop-color="#8c0046"/><stop offset=".955" stop-color="#fa0055"/><stop offset="1" stop-color="#ff0056"/></linearGradient><linearGradient xmlns:xlink="http://www.w3.org/1999/xlink" id="i" gradientUnits="userSpaceOnUse" x1="194.639" x2="304.374" xlink:href="#c" y1="361.693" y2="375.664"/><linearGradient xmlns:xlink="http://www.w3.org/1999/xlink" id="j" gradientUnits="userSpaceOnUse" x1="412.199" x2="373.578" xlink:href="#c" y1="390.929" y2="444.272"/><linearGradient id="d"><stop offset=".149" stop-color="#3aafd9"/><stop offset=".993" stop-color="#9fdeed"/></linearGradient><linearGradient xmlns:xlink="http://www.w3.org/1999/xlink" id="k" gradientUnits="userSpaceOnUse" x1="425.033" x2="486.892" xlink:href="#d" y1="235.682" y2="232.748"/><linearGradient xmlns:xlink="http://www.w3.org/1999/xlink" id="l" gradientUnits="userSpaceOnUse" x1="334.548" x2="404.326" xlink:href="#d" y1="337.372" y2="342.743"/><linearGradient xmlns:xlink="http://www.w3.org/1999/xlink" id="m" gradientUnits="userSpaceOnUse" x1="288.245" x2="299.483" xlink:href="#b" y1="342.51" y2="285.903"/><linearGradient xmlns:xlink="http://www.w3.org/1999/xlink" id="n" gradientTransform="matrix(-.9959 -.0902 -.0902 .9959 -8482.7363 -373.3567)" gradientUnits="userSpaceOnUse" x1="-8847.413" x2="-8777.595" xlink:href="#d" y1="-86.998" y2="-82.182"/><linearGradient xmlns:xlink="http://www.w3.org/1999/xlink" id="o" gradientUnits="userSpaceOnUse" x1="164.359" x2="236.359" xlink:href="#d" y1="368.714" y2="292.714"/><linearGradient id="p" gradientUnits="userSpaceOnUse" x1="346.711" x2="414.791" y1="568.802" y2="496.94"><stop offset=".22" stop-color="#153b64"/><stop offset=".684" stop-color="#2d5caa"/></linearGradient><linearGradient id="q" gradientTransform="matrix(-1 0 -.1553 1 -8386.8896 0)" gradientUnits="userSpaceOnUse" x1="-8793.811" x2="-8707.458" y1="583.182" y2="492.03"><stop offset=".311" stop-color="#153b64"/><stop offset=".684" stop-color="#2d5caa"/></linearGradient><linearGradient xmlns:xlink="http://www.w3.org/1999/xlink" id="r" gradientUnits="userSpaceOnUse" x1="142.933" x2="207.875" xlink:href="#d" y1="212.942" y2="217.421"/><linearGradient id="e"><stop offset=".22" stop-color="#153b64"/><stop offset=".738" stop-color="#2d5caa"/></linearGradient><linearGradient xmlns:xlink="http://www.w3.org/1999/xlink" id="s" gradientUnits="userSpaceOnUse" x1="113.283" x2="466.283" xlink:href="#e" y1="801.033" y2="805.033"/><linearGradient xmlns:xlink="http://www.w3.org/1999/xlink" id="t" gradientUnits="userSpaceOnUse" x1="-109.092" x2="399.024" xlink:href="#e" y1="808.733" y2="814.491"/><path d="M407.436 268.478s22.748 35.316 27.474 44.487c4.891 9.491 22.414 22.596 37.526 36.647 10.872 10.108 10.737 22.743 10.737 22.743s-30.858 20.061-45.512 23.829c-24.072 6.19-59.147 2.751-77.717-11.692-18.569-14.443-26.51-132.398-26.51-132.398l53.332-4.466zm-130.357 71.403c45.773-22.497 56.622-116.666 8.924-160.508-4.085 24.504 13.183 116.201-8.924 160.508z" fill="#0b2c53"/><path d="M345.997 173.273c20.127 22.575 38.996 83.562 31.247 134.778-7.75 51.215-69.412 26.619-74.634 14.826 6.571-18.869 43.387-149.604 43.387-149.604z" fill="#0b2c53"/><path d="M295.39 281.009c0 6.71 17.156 12.15 38.32 12.15 21.163 0 38.32-7.44 38.32-14.15 0-2.977-3.376-4.916-8.98-6.153-7.029-1.551-17.564-3.997-29.339-3.997-10.846 0-20.698 2.315-27.669 4.099-6.633 1.697-10.652 4.78-10.652 8.051z" fill="#3aafd9"/><path d="M403.173 323.354s23 23 38 27.5 24.301 4.299 31.965 9.791c7.494 5.371 10.035 11.709 10.035 11.709s.567-2.384-1.5-9c-5.23-16.742-29.355-27.36-41-43.5z" fill="#153b64"/><path d="M200.217 530.498s30.32-14.312 38.278-18.776c13.881-7.787 61.711-22.821 61.711-22.821l-26.131-128.738-57.72 103.284-14.201 31.6z" fill="#3aafd9"/><path d="M117.753 1090.27a3.08 3.08 0 0 0 3.078 3.263h61.173a3.08 3.08 0 0 0 3.078-3.078v-54.258s-5.182-9.737-18.664-10.774c-13.482-1.047-17.802 4.176-22.809 11.923-2.011 3.109-18.849 30.422-23.712 38.323a10.034 10.034 0 0 0-.995 2.134 10.04 10.04 0 0 0-.503 2.524c-.225 3.305-.471 7.234-.646 9.943z" fill="#9fdeed"/><path d="M117.753 1090.27a3.08 3.08 0 0 0 3.078 3.263h61.173a3.08 3.08 0 0 0 3.078-3.078v-12.651h-66.18a10.04 10.04 0 0 0-.503 2.524c-.225 3.304-.471 7.233-.646 9.942z" fill="#3aafd9"/><path d="M276.159 1079.893s.336-18.478 3.488-29.938c1.761-6.401 7.344-16.453 19.487-16.453 18.761 0 26.634 14.322 31.911 21.012 6.067 7.69 10.904 16.075 14.625 25.754z" fill="#9fdeed"/><path d="M268.298 1072.92c.021 0-.246 7.324-.226 7.334 8.259 1.256 15.667 2.842 30.084 3.954v-37.329c-7.507-.927-13.542-4.644-17.187-7.826-1.462-1.267-3.553-.948-4.613.669-6.941 10.606-8.058 26.229-8.058 33.198z" fill="#9fdeed"/><path d="M269.456 1086.733a3.064 3.064 0 0 1-1.991-2.876v-9.669c0-1.774 1.773-1.23 1.773-1.23l14.752 5.209a30.257 30.257 0 0 0 10.076 1.727h50.574a3.089 3.089 0 0 1 3.089 3.089v7.548c0 1.699-1.573 3.002-3.522 3.002H293.1c-3.624 0-7.213-.649-10.606-1.92-4.238-1.587-10.032-3.756-13.038-4.88zm180.217-547.379s-24.279-21.423-31.5-27c-9.597-7.411-60-27-60-27l29.5-121 50.5 107 12 32.5z" fill="#3aafd9"/><path d="m401.673 365.354-144 17 29.6-105.54 5.88.25 12.93.56c4.37.18 8.07-3.23 8.22-7.61l.21-15.68.17-12.73 37.27 10.25-.01 20.94c0 4.14 3.2 7.58 7.33 7.88l23.4 1.68z" fill="#f5837f"/><path d="M292.923 282.604s4.609 21.287 22.846 34.937c16.683 12.487 21.386 13.583 36.886 16.083s60.987.011 60.987.011l-1.473 73.044-12.996 86.175-132.5 10-14.391-107.948 23.391-108.552z" fill="#ff0056"/><circle cx="329.032" cy="195.601" fill="#f5837f" r="41.315"/><circle cx="329.774" cy="203.941" fill="#f5837f" r="41.315"/><path d="M351.013 257.165c-8.09 12.25-14.807 24.795-22.09 27.44-12.074 4.385-11.841-3.84-20.5.5-2.423 1.214-6.136 2.588-7.965 3.263-2.056.759-1.624 9.108-1.624 9.108s-8.422-15.742-8.1-18.681c.06-.5.98-1.09 2.42-1.73l12.93.56c4.37.18 8.07-3.23 8.22-7.61l.21-15.68c13.839-7.711 25.849-5.971 36.499 2.83z" fill="url(#f)"/><path d="M366.434 223.598c-2.545 14.951-6.816 21.963-14.036 31.938-4.006 5.534-10.169 9.216-16.972 9.844l-.256.023c-6.849.59-13.608-1.978-18.529-6.779-8.553-8.345-13.309-14.138-18.426-28.331z" fill="#f5837f"/><path d="M377.587 201.465c.502-5.079-1.365-7.672-3.875-7.472-2.418.192-3.562 2.897-4.007 5.77-.976 6.297-1.904 12.755-4.263 24.808 5.466-6.005 11.274-14.289 12.145-23.106z" fill="#f5837f"/><path d="M291.468 211.571c-2.477-19.823 20.231-28.721 22.228-45.196l-5.267-19.565c-14.563 6.198-24.425 23.811-22.646 43.81.688 7.746 2.225 14.934 5.685 20.951z" fill="#153b64"/><path d="M302.609 202.103c11.25-1.457 16.568.26 20.111 4.561 3.499 4.247 5.505 13.989 4.094 22.091-2.604-14.055-14.989-24.204-24.205-26.652z" fill="url(#g)"/><path d="M285.634 208.536c-.928-5.397.871-8.316 3.573-8.296 2.602.02 4.035 2.827 4.733 5.868 1.529 6.665 3.019 13.506 6.472 26.224-6.313-6.007-13.167-14.426-14.778-23.796z" fill="#f5837f"/><path d="M361.195 152.805c.107.042 2.006 1.76 3.36 3.182 12.96 14.186 19.819 42.979 27.243 74.079 2.475 10.367 15.27 26.217 17.228 36.64 2.077 11.054-16.693 15.094-29.974 11.495-9.144-2.478-15.632-15.766-15.984-19.721l-2.32-26.083c-4.769-37.063-28.902-58.707-50.169-65.372-7.969-1.009-13.583 3.935-16.853 12.799-3.387-38.08 39.685-50.557 67.469-27.019z" fill="#153b64"/><path d="M527.673 234.854s-26.5 36.5-31.5 47.5-9 6-13 8 0 15.5-5 18-25.5 8.5-28 12-30 29.5-30 29.5c-19.32-34.29-39.69-72.09-59.55-77.47 0 0 5.23.7 25.47 6.11 4.34 1.16 8.61-.58 17.11-5.58s.47-6.06 8.97-10.06 44.98-29.5 46.98-35c1.55-4.27.52-7.03 2.52-8.04v-.01c0-.3 1.08-.45 1.98-.45 2.59 0 4.14 1.67 5.85 1.49.93-.09 1.925-.73 3.165-2.49 3.5-5 4.003-7.5 6.503-10.5s6.441-3.01 6.441-3.01z" fill="#9fdeed"/><path d="M416.803 589.205c-.56 15.83-34.11 191.28-36.55 221.74-2.43 30.46-19.49 216.86-19.49 216.86s-15.07 10.02-39.36 14.24c-3.36.59-6.89 1.06-10.59 1.38-22.93 1.99-41.17 2-41.17 2l46.62-439.38-50.53-111.05s19.5-5.31 52.39-5.31c32.9 0 81.05 2.17 81.05 2.17s5.45 10.85 10.32 26.69c3.36 10.91 5.95 29.3 6.97 47.27.46 8.129.6 16.169.34 23.39z" fill="#2d5caa"/><path d="M338.673 530.854s-4.72 18.86-11.62 46.56c-17.51 70.26-49.08 197.36-53.38 217.44-6 28-42 254-42 254s-14.06 0-43.84-6.59c-1.98-.44-4.04-.91-6.16-1.41-34-8-36-18-36-18s7.36-70.66 19.25-137.69c11.75-66.31 24.96-102.28 27.75-114.31 6.32-27.28 35-183 45-219s28.06-56.86 28.06-56.86z" fill="#2d5caa"/><path d="M310.538 271.951s-20.41 1.887-24.865 1.153c-3.765-.62-15.461-2.201-23.203-8.309s-2.544-5.003-10.422-10.121c-2.648-1.72-7.001-3.068-12.208-8.299-4.144-4.163-4.829-11.886-9.626-16.29-7.113-6.53-13.746-19.36-14.235-21.628-1.234-5.721.66-8.489-3.303-9.033s-5.993 3.215-8.781-2.214-3.419-4.665-5.488-7.977-15.989-16.69-15.989-16.69l-45.275 27.62s15.46 26.39 18.432 32.454c2.193 4.475 8.825 5.934 11.318 10.008 3.999 6.534 3.642 15.078 4.547 18.107 3.459 11.577 8.101 7.167 11.792 9.692s-2.106 15.356 2.507 18.513 24.108 11.887 26.109 15.694 27.713 37.303 27.713 37.303l55.265-63.806z" fill="#9fdeed"/><path d="M137.75 199.737c-27.177-43.309-37.999-75.311-56.25-114.745-15.624-33.773-7.237-51.049 15.05-24.395 6.283 7.514 48.392 61.595 76.534 100.739l8.83 11.411c-12.527 13.936-27.342 22.72-44.164 26.99z" fill="#f5837f"/><g fill="#fc5d78"><path d="M36.59 39.813S9.84 20.609 2.623 15.461c-7.171-5.115 1.35-8.569 13.615-1.622 9.857 5.583 28.752 15.342 28.752 15.342z"/><path d="M44.604 40.847s-21.186-23.56-27.13-30.137c-5.905-6.535 3.158-8.08 13.646 1.338 8.429 7.569 24.789 21.157 24.789 21.157z"/><path d="M38.463 37.349S14.569 13.55 7.898 6.987s2.871-8.758 14.555.611c9.39 7.53 26.197 22.253 26.197 22.253zm57.182 10.027c-7.113-8.889-25.29-23.683-29.171-28.33-6.257-7.491-18.067-6.633-11.813.835 7.424 8.865 21.402 24.286 21.402 24.286z"/></g><path d="M82.69 84.633c-2.568-18.811-43.067-38.835-46.68-45.396-5.258-9.548 13.118-8.683 20.42-6.399 8.67 2.711 18.098 5.788 33.096 10.683 15.71 5.127 5.202 21.201 7.837 26.54-8.125 5.718-14.673 14.572-14.673 14.572z" fill="#f5837f"/><path d="M38.683 40.516a1.944 1.944 0 0 1-2.442-.985c-2.899-6.11-13.225-27.794-16.857-34.4-4.244-7.718 4.953-7.122 12.959 4.479 6.434 9.324 17.438 26.736 17.438 26.736z" fill="#f5837f"/><path d="M313.307 634.196s14.787-39.219 27.309-40.594c1.901-.209 4.965 1.59 5.154 3.494 1.464 14.786-12.344 11.464-17.755 43.926-5.41 32.463-24.207 86.218-24.207 86.218z" fill="url(#h)"/><path d="M298.833 297.476s-1.674 25.866-2.337 36.477c-.663 10.612-5.953 34.819-9.933 48.415s-12.224 28.153-18.902 43.441c-7.791 17.836-6.964 34.487-6.964 34.487l-11.606-87.876 42.778-88.54z" fill="url(#i)"/><path d="M291.673 299.854s20.5 33 22 41 0 16.5-7 17.5-22.5-47-22.5-47z" fill="#f5837f"/><path d="M384.126 390.452a42.666 42.666 0 0 0 2.91 15.253c4.516 11.583 11.682 33.565 12.783 38.17 2.896 12.123.448 42.872.448 42.872l13.304-82.507-29.674-53.557z" fill="url(#j)"/><path d="M360.474 272.37s9.154 2.611 9.1 6.131c-.212 13.742-.561 48.725 1.099 61.354 2.759 20.981 13.071 62.676 20.699 75.606 5.68 9.63 30.801 43.894 43.301 67.894 10.445 20.054 15 56 15 56s3.5-29.5 3-42.5-27-74.5-30-92.5-1-68.5-1-68.5l-29.5-53.5-14.892-5.928z" fill="#9fdeed"/><path d="M496.303 246.804s-8.3.58-14.72-2.51c-10.37-5-17.91-20.64-19.91-24.48v-.01c0-.3 1.08-.45 1.98-.45 2.59 0 4.14 1.67 5.85 1.49.8 2.46 2.595 6.45 6.305 9.7 5.79 5.06 20.495 16.26 20.495 16.26z" fill="url(#k)"/><path d="M524.31 239.21c34.402-37.825 56.575-74.129 81.506-109.717 21.346-30.481 16.144-48.967-10.503-26.671-7.512 6.286-58.514 52.075-93.13 85.631l-16.574 16.389c9.868 15.929 22.899 27.193 38.701 34.368z" fill="#f5837f"/><path d="M663.16 95.187s26.061-18.02 33.365-23.044c7.257-4.991-1.204-8.591-13.586-1.855-9.951 5.414-29.01 14.848-29.01 14.848z" fill="#fc5d78"/><path d="M649.864 90.579s22.037-22.766 28.219-29.12c6.142-6.313-2.859-8.19-13.686.836-8.701 7.254-26.092 20.76-26.092 20.76z" fill="#fc5d78"/><path d="M656.595 90.203s27.724-19.202 35.449-24.483-1.279-9.128-14.434-1.97c-10.572 5.752-29.717 17.274-29.717 17.274zm-58.054-.234c8.572-7.492 29.077-18.842 33.718-22.729 7.482-6.267 18.955-3.336 11.479 2.909-8.874 7.413-25.356 20.123-25.356 20.123z" fill="#fc5d78"/><path d="M604.708 128.928c5.852-18.061 61.953-21.959 66.668-27.777 6.863-8.468-24.079-19.52-31.669-18.563-9.013 1.137-18.836 2.5-34.463 4.667-16.369 2.271-8.866 19.948-12.403 24.737 6.987 7.065 11.867 16.936 11.867 16.936z" fill="#f5837f"/><path d="M661.816 100.668c2.221 2.418 6.026 2.963 8.725 1.095 7.86-5.44 23.18-16.274 28.515-19.921 7.271-4.97-1.204-8.591-13.586-1.855-9.951 5.414-29.01 14.848-29.01 14.848z" fill="#f5837f"/><path d="m386.239 279.032 3.447 27.502-7.961 8.685 8.685 7.237s-6.514 5.066-6.514 37.635 6.514 50.662 6.514 50.662l15.763-5.9 8.844-59.237-10.344-71.929-10.508 4.996z" fill="url(#l)"/><path d="M298.145 310.335c.366 9.676-.864 20.375-2.384 31.26l-10.088-23.074 5-21z" fill="url(#m)"/><path d="M307.423 273.104s-10.362 3.631-10.453 6.494c-.393 12.383-1.682 44.55-4.256 57.288-4.191 20.742-18.08 58.293-23.91 67.833-7.71 12.616-35.665 47.853-49.781 70.94-11.796 19.29-18.806 54.839-18.806 54.839s-1.468-29.671-.078-42.606 7.022-45.759 11.249-63.511c4.228-17.752 30.721-94.984 30.721-94.984l32.277-39.379 5.787-16.664z" fill="#9fdeed"/><path d="m286.166 273.361-6.01 26.112 7.145 9.368-9.302 6.424s6.03 5.633 3.092 38.069-12.057 49.868-12.057 49.868l-17.631-67.091 18.325-65.924z" fill="url(#n)"/><path d="M190.673 291.354s6 0 15.5-2 20.5-10 20.5-10 5.5-.5 5.5 4 4.5 19 8 23.5 5.5 11 5.5 11l-7 22-26.824-35.224z" fill="url(#o)"/><path d="M373.673 493.854s-4 14 5 27 35.771 22.94 35.771 22.94c-3.54-19.562-8.59-36.934-15.271-51.94z" fill="url(#p)"/><path d="M290.625 491.854s1.825 19-9.194 32-41.334 21.94-41.334 21.94c6.579-19.562 16.327-35.934 25.339-50.94z" fill="url(#q)"/><path d="M213.422 203.663s0 6.538-8.321 11.293-16.643 10.699-16.643 10.699 1.189 6.538 10.699 4.755 22.587-10.105 22.587-10.105z" fill="url(#r)"/><path d="M416.803 589.205c-.56 15.83-34.11 191.28-36.55 221.74-2.43 30.46-19.49 216.86-19.49 216.86s-15.07 10.02-39.36 14.24l-2.73-.19 29-228 31-220 37.79-28.04c.46 8.129.6 16.169.34 23.39z" fill="url(#s)"/><path d="M327.053 577.414c-17.51 70.26-49.08 197.36-53.38 217.44-6 28-42 254-42 254s-14.06 0-43.84-6.59l47.84-231.41 50-186z" fill="url(#t)"/></svg></g><g transform="translate(1155.0 2500.0) rotate(0.0 580.0 173.75) scale(2.5 2.5054073540014423)"><svg width="464" height="138.7" viewBox="0 0 464 138.7"><clipPath id="v"><path d="M0 0h464v138.7H0z"/></clipPath><linearGradient id="u"><stop offset=".002" stop-color="#fff"/><stop offset=".89" stop-color="#9fdeed"/></linearGradient><linearGradient xmlns:xlink="http://www.w3.org/1999/xlink" id="w" gradientUnits="userSpaceOnUse" x1="-31.613" x2="204.119" xlink:href="#u" y1="13.702" y2="183.953"/><linearGradient id="x" gradientUnits="userSpaceOnUse" x1="179.51" x2="163.51" y1="-156.354" y2="245.646"><stop offset=".313" stop-color="#fff"/><stop offset=".89" stop-color="#9fdeed"/></linearGradient><linearGradient xmlns:xlink="http://www.w3.org/1999/xlink" id="y" gradientUnits="userSpaceOnUse" x1="3.607" x2="181.069" xlink:href="#u" y1="111.521" y2="234.11"/><linearGradient xmlns:xlink="http://www.w3.org/1999/xlink" id="z" gradientUnits="userSpaceOnUse" x1="326.647" x2="414.676" xlink:href="#u" y1="141.7" y2="141.7"/><linearGradient id="A" gradientUnits="userSpaceOnUse" x1="417.884" x2="265.884" y1="-84.622" y2="243.378"><stop offset=".295" stop-color="#fff"/><stop offset=".89" stop-color="#9fdeed"/></linearGradient><g clip-path="url(#v)"><ellipse cx="75" cy="90.7" fill="url(#w)" rx="73" ry="68"/><ellipse cx="168.324" cy="124.7" fill="url(#x)" rx="53.676" ry="50"/><ellipse cx="60.324" cy="150.7" fill="url(#y)" rx="53.676" ry="50"/><ellipse cx="370.662" cy="141.7" fill="url(#z)" rx="44.015" ry="41"/><ellipse cx="323.662" cy="118.7" fill="url(#A)" rx="44.015" ry="41"/></g></svg></g><g transform="translate(1702.5 817.5) rotate(0.0 180.0 287.5) scale(2.517200872629636 2.50235003307454)"><svg width="143.016" height="229.784" viewBox="0 0 143.016 229.784"><linearGradient id="B" gradientUnits="userSpaceOnUse" x1="91.838" x2="128.917" y1="60.791" y2="60.791"><stop offset=".002" stop-color="#fff"/><stop offset="1" stop-color="#9fdeed"/></linearGradient><path d="M72.119 95.503c-.316-3.478-3.717-5.809-7.074-4.845-6.359 1.825-15.765 4.545-20.121 5.903C30.525 101.051 2.53 151.037.018 184.72c-.366 4.907 5.193 7.985 9.197 5.123 11.831-8.458 33.585-21.363 52.907-18.465 15.773 2.366 11.82-55.82 9.997-75.875zm7.997 82.999c17.019 9.597 26.236 33.151 30.364 47.097 1.397 4.719 7.673 5.711 10.403 1.616 18.733-28.106 27.396-84.739 18.804-97.134-4.123-5.948-16.311-22.204-16.311-22.204s-60.036 61.166-43.26 70.625z" fill="#2d5caa"/><path d="M127.601 5.665c-10.18 8.383-15.279 12.106-23.373 21.013-1.849 2.035-6.646 4.08-8.391 6.132-47.993 56.444-56.92 118.719-45.149 148.017 0 0 9.186-4.216 18.905-.875 9.719 3.342 14.37 12.313 14.37 12.313 27.778-16.142 59.634-72.391 55.2-148.4-.162-2.784-2.373-5.594-2.635-8.429-.988-10.707-1.699-16.778-4.238-28.159-.471-2.112-3.018-2.987-4.689-1.612z" fill="#3aafd9"/><path d="M121.669 31.776c8.263 2.841 13.96 7.206 17.495 12.285-.766-13.355-2.647-27.318-5.873-41.785-.472-2.113-3.018-2.99-4.689-1.613-12.562 10.347-23.469 21.214-32.879 32.303 7.032-3.639 15.896-4.646 25.946-1.19z" fill="#ff0056"/><path d="M116.484 44.543c-22.604-7.772-34.975 25.053-13.535 32.425 23.089 7.939 37.692-24.119 13.535-32.425z" fill="url(#B)"/><path d="M88.157 109.88c-7.796 10.153-19.479 37.022-26.599 70.437l-1.168 5.775a288.013 288.013 0 0 0-3.472 22.823c-.281 2.548 3.107 3.677 4.411 1.47a288.364 288.364 0 0 0 10.909-20.327l2.524-5.306c14.362-31.015 21.143-59.531 20.998-72.336 0 0 .115-5.615-2.106-6.355s-5.497 3.819-5.497 3.819z" fill="#2d5caa"/></svg></g></svg>