<svg height="1600" viewBox="0 0 1600 1600" width="1600" xmlns="http://www.w3.org/2000/svg"><path d="m1200.505 314.026-40.166 66.452-47.421 78.446-21.015 34.762-1.934 3.203-14.672 24.268v.007h-.007l-.554.918-.273.456-.645 1.072-76.343 126.302-29.252 48.388-140.265 232.057-85.483-4.745-42.276-2.348-2.748-.155-33.479-1.864h-.014l-6.301-.351-21.787-1.212-196.153-10.894 10.655-73.223 3.532-24.254.414-2.818 6.47-44.442 35.112-241.31 120.553-35.708 2.58-.771 100.106-29.651 5.636-1.668 328.953-97.443 2.573-.764 32.504-9.624 18.716-5.545z" fill="#98daf4"/><path d="m663.972 921.252-6.315-.358-156.668-84.257-47.085-25.326.414-2.818 49.622 26.686 160.018 86.066zM619.03 486.268l81.17 436.995-2.754-.157-80.991-436.071zm105.742-31.326 350.526 66.218-1.485 2.449-354.672-66.998zm367.131 38.747-1.934 3.199-36.239-139.386 2.568-.761z" fill="#b0ecff"/><path d="m1427.824 1116.109-150.275-38.267-3.757-.953-25.782-6.568-2.923-.743-167.694-42.696-23.419-5.966-55.37-14.096-30.5-7.767-59.211-15.078 71.857-138.498 1.626-3.148 79.259-152.763 102.693 119.614 2.117 2.467 53.744 62.604 3.315 3.863 128.524 149.7 1.843 2.152z" fill="#98daf4"/><path d="m1164.328 809.18 2.117 2.467c-49.124 8.951-127.605 23.237-185.695 33.829l1.626-3.147c57.192-10.423 133.241-24.275 181.952-33.149zm59.176 68.934 24.506 192.207-2.923-.743-24.898-195.327zm130.367 151.852-76.322 47.876-3.757-.953 78.236-49.075z" fill="#b0ecff"/><path d="M533.879 1125.404c-142.298 185.758-361.703 53.975-361.703 53.975s100.94-117.764 185.758-154.214c84.818-36.451 132.484 0 132.484 0l2.131 4.921 37.698 86.949z" fill="#f4d862"/><path d="m578.874 1109.414-10.444 4.823-19.95 9.204-2.075.96-50.954-110.396 16.235-7.494 16.234-7.493z" fill="#f299ac"/><path d="m568.43 1114.237-19.95 9.204-36.794-116.93z" fill="#e5889a"/><path d="M1148.836 910.541s-40.818 73.308-71.443 116.341l-23.42-5.965-55.37-14.097-30.499-7.767c1.605-2.86 3.589-5.839 5.986-8.937 26.637-34.348 174.746-79.575 174.746-79.575z" fill="#82c0e0"/><path d="m567.223 1126.835-60.117-130.252c-4.255-9.22-.231-20.144 8.989-24.399l15.774-7.28 75.527 163.64-15.774 7.28c-9.22 4.256-20.144.231-24.399-8.989z" fill="#f299ac"/><path d="m616.594 745.476-16.122 42.058-96.531 47.645-2.951 1.458-9.87 4.872-40.748-5.944 3.533-24.254.414-2.818 6.47-44.442c15.884-6.708 36.065-13.494 59.772-18.576 58.882-12.618 93.931-1.402 93.931-1.402z" fill="#82c0e0"/><path d="M902.591 640.329s43.46 41.357 59.583 48.367c16.122 7.01 100.239 29.441 100.239 29.441l16.122-37.853-63.088-30.142c.001.001-108.65-25.935-112.856-9.813z" fill="#fff"/><path d="M758.05 794.396s-16.017 24.506-39.367 52.903c-41.175 50.092-105.139 112.289-144.155 73.497-18.478-18.372-44.119-28.256-70.904-33.107-61.847-11.202-129.799 4.437-129.799 4.437L529.75 770.823c38.904-30.268 91.281-36.752 136.389-16.893z" fill="#65abe0"/><path d="M902.591 640.329s43.46 41.357 59.583 48.367c16.122 7.01 100.239 29.441 100.239 29.441l16.122-37.853-63.088-30.142c.001.001-108.65-25.935-112.856-9.813z" style="fill:none;stroke:#1b2638;stroke-width:3.0171;stroke-linecap:round;stroke-linejoin:round;stroke-miterlimit:10"/><path d="m883.889 1067.047-28.838 96.188c-14.153 47.218-53.064 82.862-101.333 92.837l-193.476 39.955s51.066-37.909 83.185-88.645c16.073-25.396 27.408-54.01 25.207-82.687-.96-12.568 2.951-22.691 10.339-30.815 43.187-47.476 204.916-26.833 204.916-26.833z" fill="#65abe0"/><path d="m730.502 819.428-11.818 27.871c-41.175 50.092-105.139 112.289-144.155 73.497-18.478-18.372-44.119-28.256-70.904-33.107 73.02-34.859 226.877-68.261 226.877-68.261z" fill="#4b8cc6"/><path d="m863.661 1134.516-8.61 28.719c-14.153 47.218-53.064 82.862-101.333 92.837l-32.939 6.802" style="fill:none;stroke:#1b2638;stroke-width:3.7714;stroke-linecap:round;stroke-linejoin:round;stroke-miterlimit:10"/><path d="m738.213 1078.333 114.203 2.523c-3.252 3.176-102.349 99.223-208.988 126.526 16.073-25.396 27.408-54.01 25.207-82.687-.96-12.568 2.951-22.691 10.339-30.815 23.152-7.983 59.239-15.547 59.239-15.547z" fill="#4b8cc6"/><path d="M1253.52 820.066c-78.285 82.091-224.599 180.094-360.553 242.839-16.305 7.528-33.682 15.106-51.634 22.543-33.962 14.069-70.013 27.625-104.824 39.304a1309.947 1309.947 0 0 1-37.138 11.881c-20.314 6.162-39.738 11.447-57.515 15.569-17.77 4.108-35.988-4.781-43.629-21.338l-18.94-41.042-17.139-37.124-37.993-82.322c-7.648-16.571-2.573-36.205 12.099-47.063 48.648-36.016 118.822-77.38 184.524-110.677 15.814-8.019 31.376-15.569 46.306-22.459 135.954-62.751 305.457-110.516 418.72-116.824 63.305-3.526 109.044 5.895 121.507 32.904 12.465 27.001-10.036 67.916-53.791 113.809z" fill="#f4d862"/><path d="M762.046 1074.583s-12.218 26.959-25.536 50.169a1309.947 1309.947 0 0 1-37.138 11.881c-4.108-23.349-2.615-55.861-2.615-55.861 11.818-3.624 65.289-6.189 65.289-6.189z" fill="#eab853"/><path d="M1253.52 820.066c-78.285 82.091-224.599 180.094-360.553 242.839-16.305 7.528-33.682 15.106-51.634 22.543-69.389-84.418-101.669-185.807-116.306-252.084a689.831 689.831 0 0 1-4.248-20.728c15.814-8.019 31.376-15.569 46.306-22.459 4.192-1.935 8.419-3.855 12.674-5.762 73.602-32.981 155.967-61.454 233.453-81.411 26.819-6.905 53.05-12.793 78.131-17.489 34.081-6.386 66.046-10.578 94.463-12.162 63.305-3.526 109.044 5.895 121.507 32.904 12.463 27.001-10.038 67.916-53.793 113.809z" fill="#f299ac"/><path d="M765.901 1063.718s-18.926 9.113-26.637 11.216-28.74 13.318-30.142 16.122-2.103 0-2.103 0l21.029 38.554 8.412-2.804 38.554 51.872 65.892 26.637s18.926-5.608 8.412-16.122c-10.515-10.515-35.049-53.274-31.544-82.014s-51.873-43.461-51.873-43.461z" fill="#f4d862"/><path d="M843.709 1066.522v21.73l-2.145 1.563-23.791 17.363c-35.75.701-51.872-43.46-51.872-43.46l14.307-13.115 27.752-25.438 34.733 40.187zm44.863-607.044-1.479 20.307-1.325 18.246-65.892-22.431c11.216-11.216 22.431-47.666 22.431-47.666l11.917-1.402 19.964 6.884.365.126z" fill="#fff"/><path d="M920.115 371.155s8.412-11.216 2.804-19.627c0 0 2.804-19.627-8.412-32.245s-21.029-9.814-34.348-4.907-30.142-3.505-36.451 9.814-43.46 32.245-35.049 50.47c8.412 18.225-6.309 17.524 5.608 27.338s33.647 9.113 35.75 9.113 70.098-39.956 70.098-39.956z" fill="#1b2638"/><path d="m888.572 459.478-1.479 20.307c-36.85-3.603-34.817-39.829-34.817-39.829s11.86-4.858 21.912-6.54l.365.126z" fill="#dae4ea"/><path d="m886.981 481.351 1.591-21.873-14.019-25.936-20.328-7.01-11.917 1.402s-4.242 13.785-10.116 27.009" style="fill:none;stroke:#1b2638;stroke-width:3.0171;stroke-linecap:round;stroke-linejoin:round;stroke-miterlimit:10"/><path d="m1069.781 1127.536-17.835-37.766 41.308 29.474 41.308 29.474-50.741-.624-50.742-.624zM556.535 398.563l-40.968-8.121 48.261-15.681 48.262-15.681-30.678 40.422-30.678 40.422z" fill="#98daf4"/><path d="m1028.111 466.613 9.725 29.163-27.606-25.16-27.607-25.159 37.028 4.902 37.029 4.901z" fill="#fff"/><circle cx="1184.628" cy="565.385" fill="none" r="21.554" stroke="#98daf4" stroke-miterlimit="10" stroke-width="3.017"/><circle cx="687.162" cy="543.678" fill="none" r="21.554" stroke="#65abe0" stroke-miterlimit="10" stroke-width="3.017"/><circle cx="785.305" cy="306.808" fill="#1b2638" r="13.409"/><circle cx="806.447" cy="330.635" fill="#1b2638" r="6.796"/><path d="M899.573 1203.927s-.175 1.63-.677 4.47" fill="none" stroke="#65abe0" stroke-linecap="round" stroke-linejoin="round" stroke-width="3.017"/><path d="M896.913 1217.61c-7.452 29.691-34.154 96.362-122.322 83.414" style="fill:none;stroke:#65abe0;stroke-width:3.0171;stroke-linecap:round;stroke-linejoin:round;stroke-dasharray:9.4267 9.4267"/><path d="M769.92 1300.273c-1.467-.256-2.95-.533-4.449-.833M525.366 729.216s-1.549-.536-4.333-1.293" fill="none" stroke="#65abe0" stroke-linecap="round" stroke-linejoin="round" stroke-width="3.017"/><path d="M511.855 725.789c-30.035-5.915-101.728-10.18-127.597 75.096" style="fill:none;stroke:#65abe0;stroke-width:3.0171;stroke-linecap:round;stroke-linejoin:round;stroke-dasharray:9.4267 9.4267"/><path d="M382.946 805.43a183.226 183.226 0 0 0-1.143 4.38" fill="none" stroke="#65abe0" stroke-linecap="round" stroke-linejoin="round" stroke-width="3.017"/><path d="m1353.012 890.555-6.57 30.031-10.841-35.743-10.84-35.744 29.302 23.162 29.303 23.162z" style="fill:none;stroke:#1b2638;stroke-width:3.0171;stroke-linecap:round;stroke-linejoin:round;stroke-miterlimit:10"/><circle cx="961.849" cy="865.699" fill="#1b2638" r="90.114"/><path d="M847.214 1089.654s-2.145.203-5.65.161c-7.823-.07-22.417-1.311-35.007-8.573-11.068-6.386-20.581-20.518-26.35-30.64l27.752-25.438 34.733 40.187a128.95 128.95 0 0 1 1.016 4.15c2.63 11.391 3.506 20.153 3.506 20.153z" fill="#dae4ea"/><circle cx="961.849" cy="865.699" fill="#fff" r="57.216"/><path d="M898.385 879.362c-3.505 2.103-131.783-9.814-164.028-35.75-3.904-3.14-6.961-6.596-9.33-10.248a689.831 689.831 0 0 1-4.248-20.728c15.814-8.019 31.376-15.569 46.306-22.459 4.192-1.935 8.419-3.855 12.674-5.762z" fill="#e5889a"/><path d="M921.321 398.458c-1.724 11.209-7.388 55.167-13.592 67.616 0 0-30.661 2.685-42.787-9.954-12.134-12.646-24.338-35.245-24.338-35.245s2.131-14.763 4.157-27.885v-.007a556.6 556.6 0 0 1 .4-2.573c1.381-8.825 2.643-16.368 3.063-17.286.554-1.199 4.311-6.239 7.865-10.893 3.414-4.472 6.631-8.587 6.631-8.587s.378-6 25.305-4.017c1.998.161 3.876.379 5.643.645h.007c20.349 3.091 26.216 12.765 26.216 12.765s.715 5.419 1.269 12.309c.028.28.049.561.07.848.589 7.523.967 16.572.091 22.264z" fill="#fff"/><path d="M886.107 434.267s1.978 6.514 15.119 7.658" style="fill:none;stroke:#1b2638;stroke-width:3.0171;stroke-linecap:round;stroke-linejoin:round;stroke-miterlimit:10"/><path d="M1131.089 670.9s26.26-9.571 28.978-9.409l24.917 1.488 12.36 6.194s1.944 1.707-2.147 1.69-45.094 1.399-49.439 1.821c-4.344.424-14.669-1.784-14.669-1.784z" fill="#fff"/><ellipse cx="870.094" cy="415.645" fill="#98daf4" rx="7.102" ry="4.143" transform="matrix(.9938 -.111 .111 .9938 -40.7556 99.137)"/><path d="M895.322 466.171c-9.924-.52-23.308-2.68-30.384-10.053-12.13-12.639-24.331-35.245-24.331-35.245s6.543-45.392 7.62-47.745 14.498-19.483 14.498-19.483.372-5.996 25.306-4.017" style="fill:none;stroke:#1b2638;stroke-width:3.0171;stroke-linecap:round;stroke-linejoin:round;stroke-miterlimit:10"/><path d="M918.1 393.61s-6.914 19.571-7.1 29.913c-.035 1.968 1.335 3.681 3.254 4.117 3.352.761 9.383 1.24 10.61-4.119 1.801-7.867-6.764-29.911-6.764-29.911z" fill="#f299ac"/><path d="M921.16 375.347c-2.089 1.626-5.285 2.818-10.157 2.818-15.421 0-29.441-7.01-36.451 5.608s-18.926 15.421-23.833 12.618c-2.615-1.493-4.43-3.982-5.559-5.979-.988-1.752-1.451-3.133-1.451-3.133s-13.318-11.917 7.01-22.431a137.282 137.282 0 0 1 5.369-2.615c18.744-8.58 37.579-11.959 37.579-11.959h.007c20.349 3.091 26.216 12.765 26.216 12.765s.716 5.417 1.27 12.308z" fill="#dae4ea"/><path d="M850.993 430.76c-.498 2.856-1.708 4.922-3.616 5.731-4.91 2.079-12.584-4.957-17.141-15.716s-4.271-21.167.639-23.247c2.617-1.108 6.02.373 9.317 3.628" fill="#fff"/><path d="M850.622 432.333c-.624 2.039-1.708 3.507-3.245 4.158-4.91 2.079-12.584-4.957-17.141-15.716s-4.271-21.167.639-23.247c2.614-1.107 6.012.37 9.306 3.617" style="fill:none;stroke:#1b2638;stroke-width:3.0171;stroke-linecap:round;stroke-linejoin:round;stroke-miterlimit:10"/><path d="M866.14 739.868c-.701 0-24.534 1.402-54.676-4.206-22.838-4.248-53.323 9.61-71.03 15.66 4.15-19.95 10.045-35.988 10.045-35.988 16.319-17.447 86.844-5.979 114.034-.778 5.208 2.453 8.832 4.703 9.337 6.386 2.104 7.009-7.71 18.926-7.71 18.926z" fill="#82c0e0"/><path d="M1055.403 980.302c-10.515 8.412-207.488 117.063-207.488 117.063-79.911-39.255-35.049-135.989-35.049-135.989 4.206 8.412 28.039 21.029 28.039 21.029l81.881-53.982 12.751-8.405s-7.641-3.603-19.859-9.477h-.007c-43.573-20.938-145.396-70.749-167.294-89.36-15.022-12.772-13.347-42.248-8.545-66.852.196-1.009.4-2.012.603-3.007 4.15-19.95 10.045-35.988 10.045-35.988 16.319-17.447 86.844-5.979 114.034-.778 3.589.687 6.414 1.269 8.265 1.654 1.605.336 2.474.526 2.474.526s190.665 180.851 200.479 201.18c9.813 20.327-9.814 53.974-20.329 62.386z" fill="#98daf4"/><path d="M812.866 961.376c4.206 8.412 28.039 21.029 28.039 21.029l44.775-29.519" style="fill:none;stroke:#1b2638;stroke-width:3.0171;stroke-linecap:round;stroke-linejoin:round;stroke-miterlimit:10"/><path d="M881.225 741.774s-17.188 18.422-43.124 12.814c-21.394-4.626-69.481-14.02-98.27-.259.196-1.009.4-2.012.603-3.007 4.15-19.95 10.045-35.988 10.045-35.988 16.319-17.447 86.844-5.979 114.034-.778 3.589.687 6.414 1.269 8.265 1.654 7.382 13.865 8.447 25.564 8.447 25.564z" fill="#82c0e0"/><path d="M913.106 592.663c0 21.73-5.93 72.025-10.438 107.109-2.755 21.499-4.984 37.292-4.984 37.292s-7.711 4.206-35.049 7.711-36.451-14.019-60.985-28.039c-24.534-14.019-53.975 12.618-59.583 9.113s7.711-11.216 3.505-18.225c-4.206-7.01-7.01-13.318 4.907-32.245 11.917-18.926 4.907-112.857 13.318-145.803s61.048-60.459 61.048-60.459l60.922 28.915s21.723 47.344 26.441 82.449c.575 4.275.898 8.376.898 12.182z" fill="#65abe0"/><path d="M913.106 592.663c0 21.73-5.93 72.025-10.438 107.109-52.237-27.135-62.464-124.451-62.464-124.451l72.004 5.159c.575 4.276.898 8.377.898 12.183z" fill="#4b8cc6"/><path d="M897.684 737.064s168.234 160.523 178.047 180.851c9.814 20.328-9.814 53.975-20.328 62.387-7.431 5.945-108.003 61.962-166.346 94.303m-5.167-179.49c-49.093-24.072-117.965-59.021-135.513-73.934-15.639-13.297-13.178-44.694-7.942-69.859 4.15-19.95 6.54-26.174 6.54-26.174m51.872 308.428-32.946 30.142s16.122 44.161 51.872 43.46l17.524-11.917" style="fill:none;stroke:#1b2638;stroke-width:3.0171;stroke-linecap:round;stroke-linejoin:round;stroke-miterlimit:10"/><path d="M1111.481 706.922s-39.956 15.421-98.27-3.918c26.819-6.905 53.05-12.793 78.131-17.489 8.896 7.142 20.139 21.407 20.139 21.407z" fill="#e5889a"/><path d="M1295.826 766.483c-9.851 16.602-24.272 34.667-42.307 53.584-25.193-12.875-46.418-33.973-59.195-61.662s-15.07-57.529-8.523-85.06c23.073-1.282 43.808-.845 61.458 1.531 30.774 4.148 52.135 14.211 60.055 31.378 7.324 15.87 2.572 36.553-11.488 60.229z" fill="#f4d862"/><path d="M1131.089 670.9s26.26-9.571 28.978-9.409l24.917 1.488 12.36 6.194s1.944 1.707-2.147 1.69-45.094 1.399-49.439 1.821c-4.344.424-14.669-1.784-14.669-1.784z" style="fill:none;stroke:#1b2638;stroke-width:3.0171;stroke-linecap:round;stroke-linejoin:round;stroke-miterlimit:10"/><path d="M1142.908 670.924s28.477-1.027 31.436-1.078c2.958-.051 17.07-.345 17.07-.345l21.942 5.63s3.313 5.426-3.016 4.821-10.579-1.768-20.985-2.617-26.851.442-26.851.442-11.275 2.282-13.94 1.214c-2.664-1.069-10.375-5.167-5.656-8.067z" fill="#fff"/><path d="m1168.009 677.427 25.532-1.661 21.33 4.456s4.246 5.027-4.361 4.513l-19.707-1.177-9.771 3.736-30.235.013s-8.435.406-7.354-2.485c1.081-2.89 24.566-7.395 24.566-7.395z" fill="#fff"/><path d="M1181.685 687.045s-2.202 3.34-.204 4.141 10.007-.084 10.007-.084l22.598 2.259s3.966 5.92-2.685 6.887c-6.65.967-30.888-.481-31.341-.508s-27.632 9.716-35.361 9.709-46.437-2.773-46.437-2.773-6.623-29.948 1.127-37.896c0 0 25.645-.388 40.131-1.112 14.02-.701 30.333 16.459 30.333 16.459z" fill="#fff"/><path d="M803.754 745.476s-2.103 22.431-34.348 24.534" style="fill:none;stroke:#1b2638;stroke-width:3.0171;stroke-linecap:round;stroke-linejoin:round;stroke-miterlimit:10"/><path d="M920.289 349.869c6.059 11.469-4.37 24.956-16.88 21.528-.27-.074-.543-.155-.818-.242-15.421-4.907-26.92-5.691-32.036 3.814s-17.733 36.843-29.65 22.122 4.206-35.75 4.206-35.75 5.608-14.02 16.823-20.328c11.216-6.309 47.666-6.309 51.171-2.804 1.733 1.732 4.663 6.888 7.184 11.66z" fill="#1b2638"/><path d="M758.184 617.138c-.831 26.306-2.375 49.775-7.704 58.24-11.917 18.926-9.113 25.235-4.907 32.245s-9.113 14.72-3.505 18.225 35.049-23.132 59.583-9.113c24.534 14.02 33.647 31.544 60.985 28.039s35.049-7.711 35.049-7.711 15.421-109.352 15.421-144.401-27.338-94.632-27.338-94.632l-60.922-28.914s-52.636 27.512-61.047 60.458c-1.222 4.788-2.119 10.864-2.796 17.811" style="fill:none;stroke:#1b2638;stroke-width:3.0171;stroke-linecap:round;stroke-linejoin:round;stroke-miterlimit:10"/><path d="m1124.099 676.079-12.618 30.843-14.02.701-125.005-34.194a75.318 75.318 0 0 1-27.674-13.052l-31.221-23.483-35.504-26.707 52.573-37.853 18.849 17.77 30.219 28.495z" fill="#fff"/><path d="m822.428 470.443 7.046-9.692 22.781 9.776 27.467 11.787 13.756 5.904-7.71 9.814z" fill="#82c0e0"/><path d="M949.479 590.105c.014 1.423-.407 13.326-18.849 17.279-11.98 2.566-15.863 17.931-17.069 29.511l-35.504-26.707 52.573-37.853z" fill="#dae4ea"/><path d="M939.042 566.727s-58.338-77.931-79.99-81.375c-21.652-3.443-51.794 27.4-41.279 56.841s70.798 79.911 70.798 79.911-2.804-18.225 15.421-21.029 39.256-9.113 35.05-34.348z" fill="#65abe0"/><g fill="none" stroke-linecap="round" stroke-linejoin="round" stroke-miterlimit="10" stroke-width="3.017"><path d="m815.613 530.061 58.957-35.842-29.479 86.516 77.597-34.867-15.536 54.686" stroke="#98daf4"/><path d="M939.042 566.727s-58.338-77.931-79.99-81.375c-21.652-3.443-51.794 27.4-41.279 56.841s70.798 79.911 70.798 79.911-2.804-18.225 15.421-21.029 39.256-9.113 35.05-34.348z" stroke="#1b2638"/><path d="m1098.163 706.922-125.708-33.493a75.427 75.427 0 0 1-27.673-13.05l-56.211-40.378m51.172-39.254 39.955 37.852 119.867 50.47m58.079 1.33c7.451-.262 15.23-.528 16.7-.553 2.958-.051 17.07-.345 17.07-.345l21.942 5.63s3.313 5.426-3.016 4.821-10.579-1.768-20.985-2.617-26.851.442-26.851.442" stroke="#1b2638"/><path d="m1168.009 677.427 25.532-1.661 21.33 4.456s4.246 5.027-4.361 4.513l-19.707-1.177-9.771 3.736" stroke="#1b2638"/><path d="M1181.685 687.045s-2.202 3.34-.204 4.141 10.007-.084 10.007-.084l22.598 2.259s3.966 5.92-2.685 6.887c-6.65.967-30.888-.481-31.341-.508s-27.632 9.716-35.361 9.709-46.537-2.527-46.537-2.527m1.403-37.939s29.63 1.292 43.66-2.388m-415.877 423.059 21.73 34.348" stroke="#1b2638"/></g><path d="M530.248 1117.034c-94.786 105.91-231.195 23.973-231.195 23.973s67.294-78.509 123.841-102.805c31.102-13.368 54.711-12.029 69.656-8.117z" fill="#eab853"/><path d="m749.078 1109.982 62.386 9.113-25.235 37.852 42.059 6.309v16.123" style="fill:none;stroke:#fff27d;stroke-width:3.0171;stroke-linecap:round;stroke-linejoin:round;stroke-miterlimit:10"/><path d="m922.786 928.423 12.751-8.405s-7.641-3.603-19.859-9.477c.519.007 27.654.435 36.682 7.374 7.865 6.05-17.167 11.055-29.574 10.508z" fill="#82c0e0"/><path d="m927.094 766.346 124.891 123.76" style="fill:none;stroke:#1b2638;stroke-width:3.0171;stroke-linecap:round;stroke-linejoin:round;stroke-miterlimit:10"/><ellipse cx="1038.58" cy="941.047" fill="#fff" rx="9.814" ry="28.039" transform="matrix(.5776 -.8163 .8163 .5776 -329.4908 1245.3511)"/><path d="M753.899 1069.235s-41.973 12.708-46.88 20.419l20.328 39.955" style="fill:none;stroke:#1b2638;stroke-width:3.0171;stroke-linecap:round;stroke-linejoin:round;stroke-miterlimit:10"/><path d="M1184.682 728.673s11.617 67.273 69.097 91.106m-547.475.288s-145.709 76.839-164.85 99.436" style="fill:none;stroke:#1b2638;stroke-width:3.7714;stroke-linecap:round;stroke-linejoin:round;stroke-miterlimit:10"/><path d="m855.359 1080.92-2.944-.063.084-.084z" fill="#4b8cc6"/><path d="m676.211 1018.799-96.923 71.023-17.139-37.124z" fill="#eab853"/><path d="m520.78 1084.238-30.37-.949 18.981-23.727 187.933-94.602c10.477-5.274 23.24-.817 28.156 9.834 4.916 10.65.028 23.255-10.784 27.806z" fill="#4b8cc6"/><path d="m687.283 1014.141-128.344 49.577m175.134-193.934s25.194 88.149 45.685 120.012" style="fill:none;stroke:#1b2638;stroke-width:3.7714;stroke-linecap:round;stroke-linejoin:round;stroke-miterlimit:10"/><path d="M800.599 1016.86s-1.752 59.475 46.615 80.504" style="fill:none;stroke:#1b2638;stroke-width:3.0171;stroke-linecap:round;stroke-linejoin:round;stroke-miterlimit:10"/><path d="M593.249 743.895s-46.865 5.304-119.36 70.386m-50.591 194.838s-75.516.68-150.702 71.801" style="fill:none;stroke:#1b2638;stroke-width:3.7714;stroke-linecap:round;stroke-linejoin:round;stroke-miterlimit:10"/><ellipse cx="350.601" cy="715.135" fill="#f4d862" rx="20.546" ry="33.33" transform="matrix(.9209 -.3899 .3899 .9209 -251.0921 193.3067)"/><ellipse cx="257.825" cy="998.743" fill="#f4d862" rx="20.546" ry="33.33" transform="matrix(.1827 -.9832 .9832 .1827 -771.2092 1069.8)"/><ellipse cx="330.059" cy="772.01" fill="#f299ac" rx="6.849" ry="11.11" transform="matrix(.9209 -.3899 .3899 .9209 -274.8944 189.7987)"/><ellipse cx="1313.504" cy="518.417" fill="#f299ac" rx="33.33" ry="20.546" transform="matrix(.4353 -.9003 .9003 .4353 274.9954 1475.2598)"/><ellipse cx="1279.242" cy="589.274" fill="#f4d862" rx="6.849" ry="11.11" transform="matrix(.9209 -.3899 .3899 .9209 -128.5158 545.4358)"/><ellipse cx="322.068" cy="1296.029" fill="#f4d862" rx="6.849" ry="11.11" transform="matrix(.9209 -.3899 .3899 .9209 -479.8495 228.1584)"/><path d="m879.722 482.314 13.756 5.904-7.71 9.814-63.34-27.589 7.046-9.692 22.781 9.776" style="fill:none;stroke:#1b2638;stroke-width:3.0171;stroke-linecap:round;stroke-linejoin:round;stroke-miterlimit:10"/><path d="M1168.26 775.617c2.103 2.804 30.843 46.965 0 44.161s-66.593-35.75-62.387 7.711" style="fill:none;stroke:#fff;stroke-width:3.7714;stroke-linecap:round;stroke-linejoin:round;stroke-miterlimit:10"/></svg>